<?xml version="1.0" standalone="no"?>
<!DOCTYPE svg PUBLIC "-//W3C//DTD SVG 1.1//EN" "http://www.w3.org/Graphics/SVG/1.1/DTD/svg11.dtd" >
<svg xmlns="http://www.w3.org/2000/svg">
  <metadata>Created by iconfont</metadata>
  <defs>
  <font id="iconfont" horiz-adv-x="1024">
    <font-face
      font-family="iconfont"
      font-weight="400"
      font-stretch="normal"
      units-per-em="1024"
      ascent="896"
      descent="-128"
    />
      <missing-glyph />
      
      <glyph glyph-name="jiage" unicode="&#59236;" d="M512 834.56c47.104 0 91.904-20.224 123.008-55.552l97.408 4.608a81.92 81.92 0 0 0 62.144-139.392L724.032 572.8c90.24-51.84 162.432-135.808 203.52-237.824 35.968-89.152 44.224-189.184 24.704-299.968a122.88 122.88 0 0 0-120.96-101.568H192.704a122.88 122.88 0 0 0-121.024 101.568c-19.52 110.784-11.264 210.752 24.704 299.968C137.6 436.992 209.792 520.96 300.096 572.8L229.632 644.224a81.92 81.92 0 0 0 62.144 139.392l97.28-4.608A163.456 163.456 0 0 0 512 834.56zM572.416 459.776a30.72 30.72 0 0 0 53.248-30.72L575.936 343.04h48.704a30.72 30.72 0 1 0 0-61.44H542.72v-61.44h81.92a30.72 30.72 0 1 0 0-61.44H542.72v-92.16a30.72 30.72 0 1 0-61.44 0v92.16H399.36a30.72 30.72 0 1 0 0 61.44h81.92V281.6H399.36a30.72 30.72 0 1 0 0 61.44H448l-49.664 86.016a30.72 30.72 0 0 0 53.248 30.72L512 355.2l60.416 104.64z"  horiz-adv-x="1024" />
      
      <glyph glyph-name="dajian" unicode="&#59237;" d="M855.36 638.016l-304.64 182.976a75.776 75.776 0 0 1-78.72 0l-304.64-183.04C142.784 623.296 128 596.416 128 567.04v-365.952c0-29.44 14.72-56.32 39.36-71.04l305.28-182.976c24.576-14.72 54.144-14.72 78.72 0l305.28 183.04c24.576 14.72 39.36 41.6 39.36 70.976V566.976c-1.28 29.44-16 56.32-40.64 71.04z m-114.432-160L531.648 355.2v-247.552c-0.576-12.8-3.008-22.4-13.44-24.96a27.008 27.008 0 0 0-15.424-4.48h-2.496a28.992 28.992 0 0 0-20.864 8.96 31.36 31.36 0 0 0-8.64 21.76V362.24c0 1.92 0 3.84 0.64 5.76L284.224 478.08c-14.08 8.32-22.144 26.88-14.08 41.6 7.936 14.72 24.576 19.84 38.08 11.52L512 408.32l204.288 122.88c14.144 8.32 29.568 3.2 37.568-11.52 8-14.08 1.28-33.28-12.928-41.6z"  horiz-adv-x="1024" />
      
      <glyph glyph-name="shouye" unicode="&#59238;" d="M555.52 777.984l312.896-224.512c30.72-22.08 48.896-57.6 48.896-95.36V96c0-64.768-52.48-117.312-117.312-117.312H640v170.624a128 128 0 0 1-256 0v-170.624H224A117.312 117.312 0 0 0 106.688 96V458.112c0 37.76 18.176 73.28 48.896 95.36L468.48 777.92a74.688 74.688 0 0 0 87.04 0z"  horiz-adv-x="1024" />
      
      <glyph glyph-name="xuqiu" unicode="&#59239;" d="M785.92 800c79.168 0 142.08-62.912 142.08-142.08v-547.84c0-79.168-62.912-142.08-142.08-142.08H238.08a141.184 141.184 0 0 0-142.08 142.08V657.92c0 79.168 62.912 142.08 142.08 142.08h547.84z m-200.896-629.12H445.056l54.784-26.304a34.56 34.56 0 0 1 28.416 0l56.768 26.368z m6.144 56.896h-154.24c-8.128 0-16.256-6.144-16.256-14.208 0-8.128 6.08-14.208 16.256-14.208h154.24c8.064 0 16.192 6.08 16.192 14.208 0 8.064-6.08 14.208-16.192 14.208zM514.048 607.232c-50.752 0-93.376-16.256-129.92-50.752-36.48-34.496-52.736-75.072-52.736-123.776v-24.32c0-6.144 2.048-12.16 2.048-16.256v-4.096c1.984-6.08 4.032-12.16 6.08-16.192 2.048-6.08 4.032-12.16 8.128-18.304 6.08-12.16 14.208-22.272 22.272-34.496l14.208-12.16 2.048-2.048 4.096-4.032 1.984-2.048 8.128-6.08 2.048-2.048h2.048c4.032-4.032 8.064-8.064 12.16-14.144a31.232 31.232 0 0 1 8.128-12.16c1.984-2.048 8.064-4.096 14.208-4.096h144c6.144 0 12.224 2.048 14.272 4.032 1.984 2.048 4.032 6.08 8.128 12.16a27.264 27.264 0 0 0 12.16 14.208h1.984l2.048 2.048 8.128 6.08c0 2.048 2.048 2.048 2.048 2.048 1.984 2.048 1.984 4.032 6.08 6.08h2.048c4.032 4.096 10.112 8.128 14.208 12.16 4.032 6.08 8.064 10.176 12.16 16.256 4.032 6.08 8.128 12.16 10.112 18.24 2.048 4.096 4.096 10.176 8.128 18.304 2.048 4.032 4.096 10.112 6.08 16.192v2.048l2.048 16.256v24.32c0 48.704-18.24 89.28-54.784 123.776-30.464 36.544-73.088 52.8-123.776 52.8z m16.192-56.832c28.416 0 52.8-10.176 75.136-28.416 22.272-18.24 32.448-44.608 32.448-75.072 0-8.128-6.08-14.208-16.256-14.208-10.112 0-16.192 8.128-16.192 14.208 0 20.288-8.128 38.528-24.384 52.736-16.256 14.208-34.496 22.4-52.736 22.4-8.128 0-16.256 6.016-16.256 14.144 2.048 6.08 10.176 14.208 18.24 14.208z"  horiz-adv-x="1024" />
      
      <glyph glyph-name="QQ" unicode="&#59232;" d="M849.152 278.528c-15.0016 87.1424-78.1312 144.2304-78.1312 144.2304 9.0112 79.1552-24.064 93.184-24.064 93.184-6.9632 244.8384-217.856 240.5376-222.2592 240.4352-4.4544 0.1024-215.3984 4.4032-222.3104-240.4352 0 0-33.0752-14.0288-24.064-93.184 0 0-63.0784-57.088-78.1312-144.2304 0 0-8.0384-147.3024 72.1408-18.0736 0 0 18.0224-49.0496 51.0976-93.184 0 0-59.136-19.968-54.1184-72.0896 0 0-2.048-58.112 126.2592-54.1184 0 0 90.112 7.0144 117.1968 45.056h23.808c27.0848-38.0416 117.248-45.056 117.248-45.056 128.2048-3.9936 126.208 54.1184 126.208 54.1184 4.9664 52.0704-54.1184 72.1408-54.1184 72.1408 33.0752 44.032 51.0976 93.184 51.0976 93.184 80.128-129.28 72.192 18.0224 72.192 18.0224z"  horiz-adv-x="1024" />
      
      <glyph glyph-name="siyouyun" unicode="&#59529;" d="M921.6 896a102.4 102.4 0 0 0 102.4-102.4v-819.2a102.4 102.4 0 0 0-102.4-102.4H102.4a102.4 102.4 0 0 0-102.4 102.4V793.6a102.4 102.4 0 0 0 102.4 102.4h819.2z m-409.4976-482.1504l-7.9872-0.256-8.0896-0.8192a115.2 115.2 0 0 1-99.2256-114.1248l-0.0512-31.6416-7.3216-3.6864-7.3728-4.4032a115.2 115.2 0 0 1 61.5936-211.968h136.6016l7.8848 0.256a115.2 115.2 0 0 1 107.3152 114.944l-0.256 7.8848-0.8192 8.0896a115.2 115.2 0 0 1-114.1248 99.2256h-89.6v21.2992l0.3072 4.3008a21.2992 21.2992 0 0 0 39.8336 6.7072l3.3792-4.9664a46.9504 46.9504 0 0 1 61.2352-11.52 47.0016 47.0016 0 0 1 16.128 62.976 118.4256 118.4256 0 0 1-17.7664 22.8864 115.0976 115.0976 0 0 1-81.664 34.816z m68.1472-230.4a21.3504 21.3504 0 1 0 0-42.6496H443.7504l-4.5056 0.512a21.3504 21.3504 0 0 0 4.5056 42.1376z m157.696 396.4416a251.7504 251.7504 0 0 1-261.12 138.24l-11.52-1.8944-10.9568-2.304A251.7504 251.7504 0 0 1 264.192 512.8704l-0.512-3.0208-9.4208-3.2256a149.3504 149.3504 0 0 1 3.6352-280.4736c5.2224-1.5872 10.1376-2.3552 15.0528-2.4064 14.6944-2.9184 32 3.3792 42.9056 16.64a47.36 47.36 0 0 1-30.1568 77.1072c-18.7392 7.0656-33.28 27.136-33.9456 49.8176 0 30.2592 24.832 55.0912 55.4496 55.0912l6.144 0.4096a46.9504 46.9504 0 0 1 40.8064 46.5408 157.8496 157.8496 0 0 0 307.2 50.7904c5.4272-16.3328 19.456-28.416 36.5568-31.3344l7.2192-1.6384a89.6 89.6 0 0 0 22.528-163.5328l-4.9152-3.2256a47.0528 47.0528 0 0 1 51.968-78.2336 183.5008 183.5008 0 0 1 91.4432 158.9248l-0.3072 10.0864-0.9216 10.3936A183.5008 183.5008 0 0 1 744.3456 573.44l-3.9424 1.28z"  horiz-adv-x="1024" />
      
      <glyph glyph-name="biaotou-xiangshang" unicode="&#59606;" d="M819.392 213.44c-10.688-10.688-24.896-14.208-39.104-14.208l-533.184 3.52c-14.208 0-28.416 3.584-39.104 14.208a51.52 51.52 0 0 0 0 74.688l266.56 266.56c3.584 3.584 10.688 7.104 14.272 10.688l3.52 3.52c17.792 7.168 42.688 3.584 56.896-10.624l266.56-270.144c24.96-24.896 21.376-56.896 3.584-78.208z"  horiz-adv-x="1024" />
      
      <glyph glyph-name="biaotou-xiangxia" unicode="&#59607;" d="M819.392 561.792c-10.688 10.624-24.896 14.208-39.104 14.208l-533.184-3.584c-14.208 0-28.416-3.52-39.104-14.208a51.52 51.52 0 0 1 0-74.624l266.56-266.624c3.584-3.52 10.688-7.04 14.272-10.624l3.52-3.584c17.792-7.04 42.688-3.52 56.896 10.688l266.56 270.144c24.96 24.896 21.376 56.896 3.584 78.208z"  horiz-adv-x="1024" />
      
      <glyph glyph-name="paixu" unicode="&#59016;" d="M383.552 741.76L384 736V0a32 32 0 0 0-63.488-5.76L320 0V626.24L155.008 494.848a32 32 0 0 0-39.04-12.48l-5.12 2.624a32 32 0 0 0-12.48 39.04l2.624 5.12 224 224c16.128 25.344 53.888 16.256 58.56-11.392zM640 768a32 32 0 0 0 31.488-26.24l0.512-5.76v-626.176l164.992 195.392a32 32 0 0 0 39.04 12.48l5.12-2.624a32 32 0 0 0 12.48-39.04l-2.624-5.12-224-288c-16.128-25.344-53.888-16.256-58.56 11.392L608 0V736A32 32 0 0 0 640 768z"  horiz-adv-x="1024" />
      
      <glyph glyph-name="youxianghao" unicode="&#59233;" d="M850.8928 609.9456L485.0176 398.7456 128.3072 604.7744A103.3728 103.3728 0 0 0 231.3728 701.44h516.8128c53.0432 0 96.8192-39.936 102.7072-91.4944z m0.6656-75.6224v-321.536c0-57.088-46.2848-103.424-103.424-103.424H231.424a103.3728 103.3728 0 0 0-103.3728 103.424V528.896l340.6848-196.7104a33.024 33.024 0 0 1 36.0448 2.048c0.4608 0.1536 0.8192 0.4608 1.3312 0.7168l345.4976 199.424z"  horiz-adv-x="1024" />
      
      <glyph glyph-name="zixun" unicode="&#59234;" d="M868.032 274.88c-19.2-42.24-46.848-80.512-82.048-113.28a386.048 386.048 0 0 0-122.496-76.928 408.448 408.448 0 0 0-150.464-28.288 409.152 409.152 0 0 0-133.12 21.888 31.616 31.616 0 0 1-25.728-2.368l-100.48-57.088-15.872 135.296a31.552 31.552 0 0 1-8.832 18.496c-64.96 65.792-100.8 151.04-100.8 240.32 0 47.744 10.112 94.144 29.888 137.856 19.2 42.304 46.848 80.512 82.048 113.28a386.048 386.048 0 0 0 122.496 76.928 409.6 409.6 0 0 0 150.4 28.288c52.16 0 102.848-9.472 150.464-28.288a386.56 386.56 0 0 0 122.496-76.864c35.2-32.832 62.784-70.848 81.984-113.28a332.48 332.48 0 0 0 0-275.84v-0.128z m57.344 302.08a417.536 417.536 0 0 1-96.448 133.248 449.92 449.92 0 0 1-142.208 89.408 472.832 472.832 0 0 1-173.632 32.64c-60.16 0-118.592-11.072-173.568-32.64a448.832 448.832 0 0 1-142.208-89.408 419.52 419.52 0 0 1-96.512-133.312 395.52 395.52 0 0 1-35.52-163.968c0-102.336 39.424-200 111.36-276.736l20.16-171.968a31.616 31.616 0 0 1 46.912-23.68l129.664 73.6a475.648 475.648 0 0 1 139.84-20.736c60.16 0 118.592 11.008 173.568 32.64a448.832 448.832 0 0 1 142.208 89.344 419.52 419.52 0 0 1 96.512 133.312 393.92 393.92 0 0 1 35.52 163.968 397.76 397.76 0 0 1-35.648 164.224z m-412.352-116.48a48 48 0 1 1-0.128-96.064 48 48 0 0 1 0.128 96.064z m192.448 0a48 48 0 1 1-0.064-96.064 48 48 0 0 1 0.064 96.064z m-384.896 0a48 48 0 1 1-0.064-96.064 48 48 0 0 1 0.064 96.064z"  horiz-adv-x="1024" />
      
      <glyph glyph-name="gengduo2" unicode="&#59235;" d="M365.696-54.848H182.848a109.824 109.824 0 0 0-109.696 109.696v182.848c0 60.544 49.152 109.76 109.696 109.76h182.848c60.544 0 109.76-49.216 109.76-109.76v-182.848c0-60.544-49.216-109.696-109.76-109.696zM182.848 274.304a36.672 36.672 0 0 1-36.544-36.608v-182.848c0-20.096 16.448-36.544 36.544-36.544h182.848a36.672 36.672 0 0 1 36.608 36.544v182.848a36.672 36.672 0 0 1-36.608 36.608H182.848zM365.696 420.48H182.848a109.824 109.824 0 0 0-109.696 109.76V713.152c0 60.544 49.152 109.696 109.696 109.696h182.848c60.544 0 109.76-49.152 109.76-109.696v-182.848c0-60.544-49.216-109.76-109.76-109.76zM182.848 749.696a36.672 36.672 0 0 1-36.544-36.544v-182.848c0-20.16 16.448-36.608 36.544-36.608h182.848a36.672 36.672 0 0 1 36.608 36.608V713.152a36.672 36.672 0 0 1-36.608 36.544H182.848z m768-36.544v-182.848c0-60.544-49.152-109.76-109.696-109.76h-182.848A109.824 109.824 0 0 0 548.48 530.304V713.152c0 60.544 49.216 109.696 109.76 109.696h182.848c60.544 0 109.696-49.152 109.696-109.696zM621.696 530.304c0-20.16 16.448-36.608 36.608-36.608h182.848a36.672 36.672 0 0 1 36.544 36.608V713.152a36.672 36.672 0 0 1-36.544 36.544h-182.848a36.672 36.672 0 0 1-36.608-36.544v-182.848z m292.608-256H585.152a36.672 36.672 0 0 0-36.608 36.544c0 20.096 16.512 36.608 36.608 36.608h329.152c20.096 0 36.544-16.512 36.544-36.608a36.672 36.672 0 0 0-36.544-36.544z m-237.76-329.152H585.152a36.672 36.672 0 0 0-36.608 36.544c0 20.16 16.512 36.608 36.608 36.608h91.392c20.16 0 36.608-16.448 36.608-36.608a36.672 36.672 0 0 0-36.608-36.544z m128 164.544H585.152a36.672 36.672 0 0 0-36.608 36.608c0 20.096 16.512 36.544 36.608 36.544h219.392c20.16 0 36.608-16.448 36.608-36.544a36.672 36.672 0 0 0-36.608-36.608z"  horiz-adv-x="1024" />
      
      <glyph glyph-name="xialakuangxiala" unicode="&#59197;" d="M800.64 542.912a42.24 42.24 0 0 1-59.456 0l-229.76-229.76L281.6 542.848a42.24 42.24 0 0 1-59.392 0 42.24 42.24 0 0 1 0-59.392L481.728 224a42.24 42.24 0 0 1 59.392 0l259.392 259.392a42.24 42.24 0 0 1 0.064 59.52z"  horiz-adv-x="1024" />
      
      <glyph glyph-name="xiangzuo" unicode="&#59198;" d="M670.848 672.64a42.24 42.24 0 0 0 0-59.392l-229.76-229.76 229.76-229.824a42.24 42.24 0 0 0 0-59.392 42.24 42.24 0 0 0-59.392 0L351.936 353.728a42.24 42.24 0 0 0 0 59.456l259.392 259.392a42.24 42.24 0 0 0 59.52 0.064z"  horiz-adv-x="1024" />
      
      <glyph glyph-name="xiangyou" unicode="&#59199;" d="M352 672.64a42.24 42.24 0 0 1 0-59.392l229.76-229.76L352 153.6a42.24 42.24 0 0 1 0-59.392 42.24 42.24 0 0 1 59.328 0l259.52 259.456a42.24 42.24 0 0 1 0 59.456L411.456 672.576a42.24 42.24 0 0 1-59.52 0.064z"  horiz-adv-x="1024" />
      
      <glyph glyph-name="ic_xuane_sousuo" unicode="&#58919;" d="M419.794651 881.078857a418.889143 418.889143 0 0 0 344.576-657.188571 66.048 66.048 0 0 0 14.409143-8.045715l7.826286-6.802285 148.041143-148.041143a69.851429 69.851429 0 0 0-90.916572-105.472l-7.826285 6.729143-148.041143 148.041143a69.705143 69.705143 0 0 0-13.604572 19.236571A418.889143 418.889143 0 1 0 419.794651 881.152z m0-139.629714a279.259429 279.259429 0 1 1 0-558.518857 279.259429 279.259429 0 0 1 0 558.518857z"  horiz-adv-x="1024" />
      
      <glyph glyph-name="zhixiang" unicode="&#59231;" d="M927.36 506.24c-14.208 30.208-40.128 45.248-73.728 45.632-43.712 0.384-162.048 0.128-205.696 0.128H425.984c11.904 10.496 22.272 19.84 33.088 28.608 41.664 33.92 36.096 97.088-19.968 121.344-32.128 13.952-62.976 7.68-89.6-15.616-48.896-42.816-97.536-85.76-146.048-128.448a21.952 21.952 0 0 0-15.68-6.144c-29.824 0.256-59.712 0-89.6 0.256-5.44 0-7.872-0.896-7.872-7.296 0.128-142.272 0.128-284.8 0-427.264 0-5.312 1.344-6.784 6.784-6.784 31.104 0.128 62.272 0 93.376 0.128 5.568 0 10.496-1.088 15.296-3.584 22.144-12.096 44.352-23.936 66.688-35.84 4.096-2.304 8.192-3.2 12.992-3.2h235.904c8.64 0 16.704 1.28 24.96 3.456 41.152 9.92 56.064 41.408 53.952 71.808a68.48 68.48 0 0 1-13.952 35.84c27.52 7.872 49.152 22.208 58.944 49.28 9.984 27.968 2.24 52.48-17.792 72.96 39.488 26.944 48.896 60.992 26.176 103.36h196.672c9.216 0 18.24 0.768 27.136 3.584 44.8 13.44 68.416 58.56 49.92 97.728zM186.88 151.104c0-6.4-1.6-8-7.808-7.872a1243.264 1243.264 0 0 1-49.856 0c-4.736-0.128-5.824 1.216-5.824 6.016 0.128 121.792 0.128 243.584 0 365.248 0 4.928 1.216 6.4 6.272 6.272 16.832-0.32 33.728-0.32 50.56 0 5.44 0.128 6.656-1.472 6.656-6.784-0.128-60.608-0.128-120.96-0.128-181.568 0-60.352-0.256-120.896 0.128-181.312z m713.536 329.92c-1.728-16.448-17.536-32.384-36.16-35.84a82.688 82.688 0 0 0-15.104-1.216c-60.16-0.128-195.392-0.128-255.552 0.128-6.4 0-8.96-1.6-7.872-7.936 0.128-0.96 0-1.984 0-3.072 0-6.4-1.728-13.44 0.448-19.008 2.368-6.08 11.136-3.072 16.704-5.76 6.272-2.88 12.48-5.952 17.536-10.688 19.52-18.368 15.296-47.36-8.64-61.248a59.904 59.904 0 0 0-34.816-6.656c-5.76 0.256-8.768-1.024-7.552-7.424 0.128-1.216 0-2.688 0-3.84 0-6.4-1.6-13.312 0.384-19.008 2.56-6.656 11.072-2.816 16.64-5.44 6.912-3.584 13.824-6.656 19.136-12.48 26.24-28.288 1.024-59.904-23.424-64.96-13.632-2.944-27.328-0.96-41.152-1.6-6.144-0.256-13.952 2.688-17.536-1.088-3.84-3.712-0.768-11.648-1.216-17.664v-0.768c0-11.968 0-11.712 11.328-14.592a47.616 47.616 0 0 0 25.472-14.656c8.64-10.048 13.696-21.76 8.64-35.2a44.096 44.096 0 0 0-34.368-29.184 77.824 77.824 0 0 0-13.696-1.344c-75.328 0-150.656 0-225.92-0.128a23.296 23.296 0 0 0-12.224 3.2 4978.752 4978.752 0 0 1-57.152 33.984c-3.968 2.24-5.696 4.672-5.696 9.408a182969.6 182969.6 0 0 1 0 380.736c0 3.968 0.64 7.04 3.968 9.92 49.28 43.2 98.56 86.72 147.712 130.048 16.896 14.848 36.16 17.28 56.32 9.728 29.76-11.2 35.712-43.84 12.096-65.088-27.904-25.152-56.064-49.856-84.224-74.688-3.84-3.584-7.808-7.04-13.44-12.16h508.736c7.68 0 15.168-0.832 22.592-3.84 18.88-7.488 29.888-23.296 28.032-40.576z"  horiz-adv-x="1024" />
      
      <glyph glyph-name="biaotizhuangshi" unicode="&#59222;" d="M883.968 768L320 0H64L627.968 768h256z m384 0L704 0H448l563.968 768h256z"  horiz-adv-x="1280" />
      
      <glyph glyph-name="gengduo1" unicode="&#59223;" d="M81.28 673.984h861.44a48.64 48.64 0 0 1 49.28 48 48.64 48.64 0 0 1-49.28 48H81.28a48.64 48.64 0 0 1-49.28-48c0-26.496 22.08-48 49.28-48z m861.44-240H81.28a48.64 48.64 0 0 1-49.28-48c0-26.496 22.016-48 49.28-48h861.44a48.64 48.64 0 0 1 49.28 48 48.704 48.704 0 0 1-49.28 48z m0-339.968H81.28a48.64 48.64 0 0 1-49.28-48c0-26.496 22.08-48 49.28-48h861.44a48.64 48.64 0 0 1 49.28 48 48.64 48.64 0 0 1-49.28 48z"  horiz-adv-x="1024" />
      
      <glyph glyph-name="yidongduan" unicode="&#59224;" d="M709.888 775.488a116.672 116.672 0 0 0 116.672-116.672v-544.512a116.672 116.672 0 0 0-116.672-116.608H340.48a116.672 116.672 0 0 0-116.672 116.608V658.816A116.672 116.672 0 0 0 340.48 775.488h369.408z m0-58.368H340.48a58.368 58.368 0 0 1-58.24-54.912l-0.128-3.392v-544.512c0-31.04 24.32-56.384 54.912-58.24H709.888c31.104 0 56.512 24.256 58.24 54.848l0.128 3.392V658.816a58.304 58.304 0 0 1-54.912 58.24h-3.456z m-68.032-524.992a29.184 29.184 0 0 0 0-58.368H408.512a29.184 29.184 0 1 0 0 58.368h233.344z"  horiz-adv-x="1024" />
      
      <glyph glyph-name="yidongduansaoma" unicode="&#59225;" d="M839.68 364.288V179.2h-184.32V302.08h-61.44v-248.576h-61.44V363.52h184.32v-122.88h61.44V364.288h61.44z m-389.12-0.768v-307.2h-307.2v307.2h307.2z m389.12-245.76v-61.44h-184.32v61.44h184.32zM389.12 302.08H204.8v-184.32h184.32V302.08z m-61.44-61.44v-61.44h-61.44v61.44h61.44z m122.88 512v-307.2h-307.2v307.2h307.2z m389.12 0v-307.2h-307.2v307.2h307.2z m-450.56-61.44H204.8v-184.32h184.32V691.2z m389.12 0H593.92v-184.32h184.32V691.2z m-450.56-61.44v-61.44h-61.44v61.44h61.44z m389.12 0v-61.44h-61.44v61.44h61.44z"  horiz-adv-x="1024" />
      
      <glyph glyph-name="bangzhu" unicode="&#59226;" d="M512 805.647059A451.162353 451.162353 0 0 1 60.235294 353.882353c0-249.976471 201.788235-451.764706 451.764706-451.764706s451.764706 201.788235 451.764706 451.764706S761.976471 805.647059 512 805.647059z m40.658824-716.8a58.187294 58.187294 0 0 0-81.317648 0 58.187294 58.187294 0 0 0 0 81.317647 58.187294 58.187294 0 0 0 81.317648 0 58.187294 58.187294 0 0 0 0-81.317647zM656.564706 429.176471c-10.541176-19.576471-33.129412-45.176471-67.764706-76.8-18.070588-16.564706-28.611765-30.117647-33.129412-40.658824-3.011765-7.529412-4.517647-18.070588-6.023529-33.129412 0-12.047059-10.541176-21.082353-22.588235-21.082353H493.929412a23.130353 23.130353 0 0 0-22.588236 22.588236c0 28.611765 4.517647 51.2 12.047059 69.270588 7.529412 18.070588 25.6 39.152941 49.694118 61.741176 25.6 22.588235 39.152941 37.647059 45.176471 45.176471 7.529412 10.541176 10.541176 24.094118 10.541176 37.647059 0 18.070588-6.023529 34.635294-19.576471 48.188235-13.552941 13.552941-31.623529 19.576471-54.211764 19.576471-21.082353 0-40.658824-7.529412-54.211765-21.082353-15.058824-13.552941-21.082353-46.682353-30.117647-63.247059-18.070588-34.635294-79.811765-25.6-78.305882 10.541176 1.505882 36.141176 18.070588 75.294118 46.682353 103.905883 28.611765 28.611765 66.258824 43.670588 112.941176 43.670588 49.694118 0 88.847059-15.058824 117.458824-43.670588 28.611765-28.611765 43.670588-63.247059 43.670588-100.894118 0-21.082353-6.023529-42.164706-16.564706-61.741176z"  horiz-adv-x="1024" />
      
      <glyph glyph-name="PCduan" unicode="&#59227;" d="M277.952 680.64a35.84 35.84 0 0 1-26.24-10.88 35.84 35.84 0 0 1-10.944-26.24v-370.752c0-10.24 3.648-18.944 10.88-26.24 7.296-7.168 16-10.816 26.304-10.816h466.88a35.84 35.84 0 0 1 26.24 10.88 35.648 35.648 0 0 1 10.88 26.24V643.52a35.52 35.52 0 0 1-10.88 26.24 35.648 35.648 0 0 1-26.24 10.88H277.952z m466.816 74.176c30.784 0 57.088-10.88 78.912-32.64 21.76-21.76 32.64-47.872 32.64-78.592v-370.816c0-30.656-10.88-56.896-32.64-78.592-21.824-21.76-48.128-32.64-78.912-32.64H548.544v-74.112h111.552c10.24 0 19.008-3.648 26.24-10.88 7.296-7.232 10.944-16 10.944-26.24 0-10.24-3.648-18.944-10.88-26.24a35.712 35.712 0 0 0-26.304-10.88H362.688a35.84 35.84 0 0 0-26.368 10.88 35.648 35.648 0 0 0-10.88 26.24c0 10.24 3.648 19.008 10.88 26.24a35.84 35.84 0 0 0 26.368 10.88h111.488v74.176H277.952a107.52 107.52 0 0 0-78.848 32.576c-21.76 21.76-32.704 47.936-32.704 78.592V643.584c0 30.72 10.88 56.896 32.64 78.592 21.824 21.76 48.128 32.64 78.912 32.64h466.816z"  horiz-adv-x="1024" />
      
      <glyph glyph-name="weixinhao" unicode="&#59228;" d="M655.7184 545.8944c10.5984 0 21.1456-1.024 31.6416-1.8944C659.0976 675.1232 517.376 773.12 355.84 773.12 175.2576 772.5056 27.2896 650.4448 27.2896 495.4624c0-89.344 49.3568-163.0208 131.2768-220.1088l-33.0752-97.8432 114.9952 56.9856c41.216-8.0384 74.24-16.128 114.944-16.128 10.5984 0 20.6336 0.512 30.6688 1.3824a248.832 248.832 0 0 0-10.0352 68.5056c0.4608 142.08 123.5968 257.536 279.7568 257.536l-0.1024 0.1024zM478.976 634.2144c24.9856 0 41.216-16.128 41.216-40.8576 0-24.2176-16.2304-40.9088-41.216-40.9088-24.4224 0-49.3056 16.1792-49.3056 40.9088 0 24.7296 24.8832 40.8576 49.3056 40.8576zM249.0368 552.448c-24.3712 0-49.3056 16.1792-49.3056 40.9088 0 24.7296 24.9344 40.8576 49.3056 40.8576 24.4224 0 41.1648-16.128 41.1648-40.8576 0-24.2176-16.2304-40.9088-41.1648-40.9088z m706.7136-260.7616c0 130.2016-131.2768 236.6464-279.3472 236.6464-156.16 0-279.296-106.4448-279.296-236.6464 0-130.7136 123.136-236.7488 279.296-236.7488 32.6144 0 65.6896 8.0896 98.7136 16.1792l90.0608-48.9472-24.9344 81.3056c66.1504 49.8688 115.5072 115.0464 115.5072 188.2112z m-369.8688 40.8576c-16.2816 0-33.0752 16.128-33.0752 32.768 0 16.1792 16.7936 32.8704 33.0752 32.8704 24.9344 0 41.1648-16.1792 41.1648-32.8192 0-16.6912-16.2304-32.8192-41.1648-32.8192z m180.6336 0c-16.3328 0-32.6144 16.128-32.6144 32.768 0 16.1792 16.2304 32.8704 32.6144 32.8704 24.8832 0 41.1648-16.1792 41.1648-32.8192 0-16.6912-16.2816-32.8192-41.1648-32.8192z"  horiz-adv-x="1024" />
      
      <glyph glyph-name="gaizao" unicode="&#59229;" d="M816 516.096a57.344 57.344 0 0 1 51.392 31.488l77.44 157.44a56.576 56.576 0 0 1-9.792 63.936l-40.768 42.496a56.128 56.128 0 0 1-69.568 9.344l-156.672-93.44a56.64 56.64 0 0 1-27.456-48.448v-70.08L540.288 512.64c-30.08 32.832-56.064 61.312-69.824 76.48 10.816 91.072-6.528 157.568-51.584 197.76-63.68 56.96-158.912 40.064-196.928 30.208a37.76 37.76 0 0 1-16.448-64l62.464-59.392c-1.216-16.32-8.192-31.36-19.904-43.008a66.688 66.688 0 0 0-38.656-18.816L141.12 697.856a37.632 37.632 0 0 1-63.68-21.888c-6.272-45.12-13.568-156.8 54.528-218.752 40.832-37.12 99.2-48.384 173.888-33.536l6.784-7.104c13.12-13.824 29.888-31.488 43.328-44.928l-240.96-240.96a134.848 134.848 0 0 1-39.68-81.024c-3.2-31.616 6.912-61.632 27.712-82.496 18.304-18.24 43.712-28.288 71.04-28.288 3.84 0 7.68 0.192 11.456 0.576a134.848 134.848 0 0 1 81.024 39.68l252.032 252.032c9.6-10.368 21.632-23.936 32.832-38.336-11.84-95.36 5.632-164.352 51.968-205.312 34.368-30.336 77.696-39.04 116.096-39.04 32.832 0 62.08 6.336 79.36 11.072a37.76 37.76 0 0 1 15.552 64.128l-60.416 56a61.248 61.248 0 0 0 57.024 60.16c17.216-17.344 45.888-46.08 61.248-59.584a37.76 37.76 0 0 1 61.888 20.16c21.952 97.536 10.112 167.936-35.072 209.28-58.688 53.568-151.68 37.76-196.48 25.856L631.872 412.544 741.12 517.12l74.88-1.024z m-457.216-55.552a1217.664 1217.664 0 0 1-17.984 18.752 37.568 37.568 0 0 1-35.136 9.6c-59.904-14.144-103.872-8.96-130.816 15.488-25.92 23.616-36.16 65.792-37.376 108.224l35.648-34.368a37.632 37.632 0 0 1 25.792-10.688 131.2 131.2 0 0 1 132.992 131.2V704.64a37.888 37.888 0 0 1-11.712 27.392l-32.704 31.104c29.44 1.792 64.704-2.176 88.96-23.808 30.08-26.88 39.936-78.528 29.312-153.344a37.376 37.376 0 0 1 9.024-30.4c8.96-10.048 41.024-45.12 79.36-87.04l-12.416-12.032-20.48 20.48-60.16-60.224c-12.992 12.992-30.08 30.912-42.24 43.776zM221.44 24.192c-23.04-23.04-56.64-28.544-73.28-11.904-9.856 9.856-10.112 23.68-9.408 30.976 1.536 14.848 9.28 30.272 21.312 42.368l301.184 301.12 61.44-61.376-301.248-301.184z m445.12 256.256c9.92-10.88 25.408-14.912 39.296-10.368 10.688 3.392 106.24 32.64 150.208-7.552 23.936-21.824 27.584-61.76 23.68-101.184-10.304 10.24-20.544 20.48-30.72 30.848a37.76 37.76 0 0 1-24 11.2 124.992 124.992 0 0 1-134.656-132.48l0.384-5.632c0.64-9.728 4.992-18.752 12.032-25.216l29.632-27.392c-28.928-1.856-63.104 1.728-86.784 22.656-38.528 34.048-37.376 105.344-29.568 159.168a38.592 38.592 0 0 1-7.104 28.16 634.88 634.88 0 0 1-45.248 53.568l49.152 49.152-35.2 35.2 8.256 7.808 80.64-87.936z m32.64 284.8L532.608 405.632l-5.76 5.76 160.064 153.472a56.64 56.64 0 0 1 17.472 40.768v69.12l147.968 88.32 33.024-34.56-73.152-148.608-73.28 1.024a54.976 54.976 0 0 1-39.744-15.68z"  horiz-adv-x="1024" />
      
      <glyph glyph-name="shoujihao" unicode="&#59230;" d="M780.8 160.6144v-67.4816a88.32 88.32 0 0 0-88.2176-88.2176H290.4576a88.32 88.32 0 0 0-88.2176 88.2176v67.4816h578.56z m-289.28-36.352a36.352 36.352 0 1 1 0-72.6528 36.352 36.352 0 0 1 0 72.704z m201.0624 679.7824a88.32 88.32 0 0 0 88.2176-88.2176v-508.5184H202.24V715.776a88.32 88.32 0 0 0 88.2176 88.2176h402.1248z m-99.3792-51.8656H389.8368c-8.6528 0-12.9536-4.352-12.9536-13.0048 0-8.6528 4.3008-12.9536 12.9536-12.9536h203.3664c8.6528 0 12.9536 4.3008 12.9536 12.9536 0 8.704-4.3008 13.0048-12.9536 13.0048z"  horiz-adv-x="1024" />
      
      <glyph glyph-name="guanbi1" unicode="&#59462;" d="M503.515429 895.707429a503.222857 503.222857 0 1 0 0-1006.445715c-277.942857 0-503.222857 225.316571-503.222858 503.222857 0 277.942857 225.28 503.222857 503.222858 503.222858z m226.413714-276.772572a45.787429 45.787429 0 0 1-64.694857 0L503.515429 457.142857 341.76 618.934857a45.787429 45.787429 0 0 1-64.731429-64.731428l161.865143-161.718858-161.828571-161.718857a45.787429 45.787429 0 0 1 64.731428-64.731428l161.718858 161.865143 161.718857-161.828572a45.787429 45.787429 0 0 1 64.731428 64.694857l-161.865143 161.718857 161.828572 161.755429a45.787429 45.787429 0 0 1 0 64.731429z"  horiz-adv-x="1024" />
      
      <glyph glyph-name="bofang3" unicode="&#59138;" d="M491.52 834.56a430.08 430.08 0 1 0 0-860.16 430.08 430.08 0 0 0 0 860.16zM439.342545 551.377455c-30.580364 0-55.342545-24.762182-55.342545-55.296v-183.156364c0-10.007273 2.792727-19.921455 7.773091-28.485818a55.714909 55.714909 0 0 1 76.101818-18.990546l149.597091 90.670546c7.586909 4.654545 13.963636 10.938182 18.152727 18.152727a54.830545 54.830545 0 0 1-17.314909 76.008727L468.712727 542.72a54.551273 54.551273 0 0 1-29.370182 8.657455z"  horiz-adv-x="1024" />
      
      <glyph glyph-name="biaodanshuju" unicode="&#59128;" d="M739.800615 797.538462a150.370462 150.370462 0 0 0 150.370462-150.370462v-526.336A150.370462 150.370462 0 0 0 739.800615-29.538462h-451.150769a150.370462 150.370462 0 0 0-150.370461 150.370462V647.168A150.370462 150.370462 0 0 0 288.689231 797.538462h451.131077zM627.003077 384H363.854769a37.612308 37.612308 0 0 1 0-75.185231H627.003077a37.612308 37.612308 0 0 1 0 75.185231z m-75.204923 187.963077h-187.963077a37.612308 37.612308 0 1 1 0-75.185231h187.963077a37.612308 37.612308 0 0 1 0 75.185231z"  horiz-adv-x="1024" />
      
      <glyph glyph-name="jiaobendaima" unicode="&#59129;" d="M830.642087 784.695652H176.706783A65.402435 65.402435 0 0 1 111.304348 719.293217v-653.935304a65.402435 65.402435 0 0 1 65.402435-65.380174h653.935304a65.402435 65.402435 0 0 1 65.380174 65.380174V719.293217A65.402435 65.402435 0 0 1 830.642087 784.695652zM384.77913 275.077565l-46.235826-46.235826-161.836521 161.836522 46.235826 46.235826 115.600695 115.622956 46.235826-46.235826-115.600695-115.600695 115.600695-115.622957z m86.194087-144.317217h-65.402434l130.782608 523.130435h65.402435l-130.782609-523.130435z m197.810087 98.081391l-46.213565 46.235826 115.578435 115.622957-115.600696 115.600695 46.235826 46.235826 115.622957-115.600695 46.235826-46.235826-161.836522-161.836522z"  horiz-adv-x="1024" />
      
      <glyph glyph-name="chaxun" unicode="&#59130;" d="M506.167652 784.695652c218.067478 0 394.841043-176.773565 394.841044-394.863304 0-218.067478-176.773565-394.841043-394.863305-394.841044C288.100174-5.008696 111.304348 171.76487 111.304348 389.854609 111.304348 607.899826 288.077913 784.695652 506.167652 784.695652z m-193.224348-515.116522l-42.139826-129.513739 129.536 42.117566-87.418435 87.418434z m281.711305 291.506087L329.104696 298.76313l93.940869-93.940869c-0.044522 0.044522 265.572174 262.366609 265.572174 262.366609l-93.940869 93.896347z m58.323478 55.095653l-32.367304-32.367305 87.396174-87.507478 32.434086 32.411826c16.183652 16.183652 16.183652 45.345391 0 64.77913l-22.683826 22.706087c-16.183652 16.161391-45.32313 16.161391-64.77913 0z"  horiz-adv-x="1024" />
      
      <glyph glyph-name="jiekou" unicode="&#59131;" d="M908.466087 719.760696l-40.381217 40.381217a7.880348 7.880348 0 0 1-10.863305 0l-72.45913-72.45913a189.773913 189.773913 0 0 1-106.763131 32.656695c-48.751304 0-97.502609-18.565565-134.745043-55.808l-97.057391-97.057391a7.635478 7.635478 0 0 1 0-10.729739l258.760347-258.760348a7.479652 7.479652 0 0 1 5.431653-2.181565 8.058435 8.058435 0 0 1 5.431652 2.181565l97.03513 97.057391a190.664348 190.664348 0 0 1 23.151305 241.39687l72.45913 72.481391a7.769043 7.769043 0 0 1 0 10.841044zM585.817043 340.836174a7.635478 7.635478 0 0 1-10.752 0l-63.443478-63.421217-85.971478 85.993739 63.510261 63.532521a7.635478 7.635478 0 0 1 0 10.752l-34.660174 34.660174a7.635478 7.635478 0 0 1-10.774261 0l-63.510261-63.510261-40.96 40.96a7.479652 7.479652 0 0 1-5.409391 2.181566 8.058435 8.058435 0 0 1-5.431652-2.203826l-96.946087-97.035131c-65.625043-65.602783-73.327304-167.312696-23.151305-241.41913l-72.45913-72.459131a7.635478 7.635478 0 0 1 0-10.774261l40.381217-40.381217a7.880348 7.880348 0 0 1 10.863305 0l72.45913 72.481391a189.773913 189.773913 0 0 1 106.74087-32.656695c48.751304 0 97.52487 18.565565 134.767304 55.808l97.057391 97.03513a7.635478 7.635478 0 0 1 0 10.752l-40.96 40.96 63.510261 63.510261a7.635478 7.635478 0 0 1 0 10.774261l-34.860522 34.459826z"  horiz-adv-x="1024" />
      
      <glyph glyph-name="keshihuatuozhuai" unicode="&#59132;" d="M748.307692 561.230769v-118.153846h-177.230769v177.230769h118.153846l-177.230769 177.23077-177.230769-177.23077h118.153846v-177.230769h-177.230769v118.153846l-177.23077-177.230769 59.076924-59.076923 118.153846-118.153846v118.153846h177.230769v-177.230769h-118.153846l177.230769-177.23077 59.076923 59.076924 118.153846 118.153846h-118.153846v177.230769h177.230769v-118.153846l177.23077 177.230769z"  horiz-adv-x="1024" />
      
      <glyph glyph-name="piliangshuju" unicode="&#59133;" d="M891.864615 718.670769a59.313231 59.313231 0 0 1-59.155692 58.998154l-480-1.024a59.313231 59.313231 0 0 1-58.978461-59.175385v-10.889846H768c16.344615 0 29.538462-13.193846 29.538462-29.538461v-546.264616c56.674462 30.72 95.350154 90.820923 95.172923 159.586462l-0.827077 428.307692zM723.790769 647.424h-429.883077v-0.196923l-116.302769-0.275692a59.313231 59.313231 0 0 1-58.998154-59.175385l1.122462-550.144a59.313231 59.313231 0 0 1 59.155692-58.978462l367.399385 0.728616c82.235077 0.196923 170.476308 56.024615 192.078769 131.544615h0.098461V632.654769a14.611692 14.611692 0 0 1-14.670769 14.769231z m-486.833231-148.342154h193.851077a44.307692 44.307692 0 0 0 0-88.615384h-193.851077a44.307692 44.307692 0 0 0 0 88.615384z m295.384616-258.461538h-295.384616a44.307692 44.307692 0 0 0 0 88.615384h295.384616a44.307692 44.307692 0 0 0 0-88.615384z"  horiz-adv-x="1024" />
      
      <glyph glyph-name="shanchu" unicode="&#59134;" d="M506.167652 784.695652c218.067478 0 394.841043-176.773565 394.841044-394.863304 0-218.067478-176.773565-394.841043-394.863305-394.841044C288.100174-5.008696 111.304348 171.76487 111.304348 389.854609 111.304348 607.899826 288.077913 784.695652 506.167652 784.695652z m234.562783-361.872695H271.582609a33.391304 33.391304 0 1 1 0-66.782609h469.147826a33.391304 33.391304 0 0 1 0 66.782609z"  horiz-adv-x="1024" />
      
      <glyph glyph-name="shuju" unicode="&#59135;" d="M942.391652 739.617391H68.162783a22.839652 22.839652 0 1 1 0-45.746087h37.197913v-524.599652a57.054609 57.054609 0 0 1 57.076869-57.054609h246.361044l-70.945392-130.671304c-8.770783-13.000348-3.561739-29.540174 11.553392-37.086609 15.204174-7.457391 34.504348-3.005217 43.297391 9.97287l79.248696 145.67513c2.582261 3.784348 3.561739 7.791304 3.895652 11.887305h57.856c0.333913-4.118261 1.335652-8.102957 3.873391-11.887305l79.181913-145.897739c8.770783-12.978087 28.182261-17.430261 43.297391-9.972869 15.204174 7.43513 20.301913 24.086261 11.531131 37.064348l-70.834087 130.804869h246.383304a57.054609 57.054609 0 0 1 57.054609 57.054609V693.871304h38.199652c12.644174 0 22.861913 10.24 22.861913 22.884174a22.928696 22.928696 0 0 1-22.861913 22.861913z m-130.337391-208.072348l-208.740174-182.071652a55.05113 55.05113 0 0 0-62.842435-6.678261l-136.236522 75.620174a7.94713 7.94713 0 0 1-9.527652-1.446956l-132.140521-139.553391a33.747478 33.747478 0 0 0-47.727305-1.00174 33.792 33.792 0 0 0-1.001739 47.638261l143.003826 150.884174c17.318957 18.098087 44.521739 22.194087 66.381913 10.106435l137.572174-76.399304c2.893913-1.647304 6.544696-1.224348 8.993391 1.001739l197.965913 172.655304a33.302261 33.302261 0 0 0 24.420174 8.214261c8.993391-0.556522 17.207652-4.674783 23.084522-11.553391 5.89913-6.678261 8.904348-15.426783 8.236522-24.420174-0.578783-8.904348-4.674783-17.096348-11.442087-22.995479z"  horiz-adv-x="1024" />
      
      <glyph glyph-name="xiugai" unicode="&#59136;" d="M506.167652 784.695652c218.067478 0 394.841043-176.773565 394.841044-394.863304 0-218.067478-176.773565-394.841043-394.863305-394.841044C288.100174-5.008696 111.304348 171.76487 111.304348 389.854609 111.304348 607.899826 288.077913 784.695652 506.167652 784.695652zM445.217391 651.130435a200.347826 200.347826 0 1 1 119.718957-361.004522l138.084174-138.061913 2.337391-2.114783a28.93913 28.93913 0 0 1 38.578087 43.030261l-138.061913 138.084174A200.347826 200.347826 0 0 1 445.217391 651.130435z m0-57.878261a142.469565 142.469565 0 1 0 0-284.939131 142.469565 142.469565 0 0 0 0 284.939131z"  horiz-adv-x="1024" />
      
      <glyph glyph-name="zengjia" unicode="&#59137;" d="M506.167652 784.695652c218.067478 0 394.841043-176.773565 394.841044-394.863304 0-218.067478-176.773565-394.841043-394.863305-394.841044C288.100174-5.008696 111.304348 171.76487 111.304348 389.854609 111.304348 607.899826 288.077913 784.695652 506.167652 784.695652z m0-127.309913a33.391304 33.391304 0 0 1-33.391304-33.391304l-0.022261-201.171478H271.582609a33.391304 33.391304 0 0 1-33.235479-30.18574l-0.155826-3.205565a33.391304 33.391304 0 0 1 33.391305-33.391304h201.171478v-201.193739a33.391304 33.391304 0 0 1 30.185739-33.235479l3.227826-0.155826a33.391304 33.391304 0 0 1 33.391305 33.391305l-0.022261 201.193739h201.193739a33.391304 33.391304 0 0 1 33.235478 30.163478l0.155826 3.227826a33.391304 33.391304 0 0 1-33.391304 33.391305h-201.193739v201.171478a33.391304 33.391304 0 0 1-30.163479 33.235478z"  horiz-adv-x="1024" />
      
      <glyph glyph-name="youxiang" unicode="&#59127;" d="M1238.089143-32.841143a54.637714 54.637714 0 0 0-54.198857-54.198857H199.972571a54.198857 54.198857 0 0 0-54.125714 54.198857v55.003429h983.04V661.211429L691.931429 267.922286l-546.157715 491.52V841.362286c0 30.208 24.502857 54.637714 54.637715 54.637714h983.04c30.134857 0 54.637714-24.429714 54.637714-54.637714v-874.203429zM278.674286 786.797714L691.931429 414.866286l413.257142 371.931428H278.674286zM36.571429 240.64h436.882285v-109.202286H36.571429V240.64z m0 273.042286h273.042285V404.48H36.571429V513.682286z"  horiz-adv-x="1243" />
      
      <glyph glyph-name="zhixiang-zuo" unicode="&#59126;" d="M268.928 350.549333l171.648-171.690666a32 32 0 0 0-45.226667-45.226667l-226.304 226.261333a31.914667 31.914667 0 0 0 0 45.226667L395.306667 631.466667a32 32 0 0 0 45.269333-45.226667l-171.648-171.648H810.666667a32 32 0 1 0 0-64H268.885333h0.042667z"  horiz-adv-x="1024" />
      
      <glyph glyph-name="zhixiang-you" unicode="&#59125;" d="M755.072 350.549333l-171.648-171.690666a32 32 0 0 1 45.226667-45.226667l226.304 226.261333a31.914667 31.914667 0 0 1 0 45.226667L628.693333 631.466667a32 32 0 0 1-45.269333-45.226667l171.648-171.648H213.333333a32 32 0 1 1 0-64h541.781334-0.042667z"  horiz-adv-x="1024" />
      
      <glyph glyph-name="sousuo" unicode="&#59124;" d="M729.536371 92.075148a421.124821 421.124821 0 1 1-421.06084 729.386654 421.124821 421.124821 0 0 1 421.124821-729.386654z m-30.071205 52.080766a360.982413 360.982413 0 1 0-360.85445 625.225122 360.982413 360.982413 0 0 0 360.85445-625.225122zM409.693925 706.231507C266.183901 623.439724 213.015453 445.379806 292.096322 308.395874a30.071204 30.071204 0 1 1 52.080766 30.071204c-62.061847 107.48856-19.834198 249.015163 95.588041 315.683663a30.071204 30.071204 0 0 1-30.071204 52.080766zM699.465166 144.155914c34.741838 20.026142 62.125828 12.732276 82.215952-22.009562l90.213613-156.30628c20.090124-34.741838 12.732276-62.125828-22.009562-82.151971-34.741838-20.090124-62.061847-12.796257-82.151971 22.009562l-90.213612 156.306281c-20.090124 34.677857-12.796257 62.061847 21.94558 82.15197z"  horiz-adv-x="1024" />
      
      <glyph glyph-name="fuzhilianjie" unicode="&#59123;" d="M753.984-62.528h-592c-52.864 0-96 43.136-96 96v592c0 52.928 43.136 96 96 96h592c52.928 0 96-43.072 96-96v-592c0-52.864-43.072-96-96-96z m-592 720c-17.6 0-32-14.4-32-32v-592c0-17.6 14.4-32 32-32h592c17.6 0 32 14.4 32 32v592c0 17.6-14.4 32-32 32h-592z m338.816-431.296l-93.44-93.44a113.28 113.28 0 0 0-80.64-33.408c-30.528 0-59.008 11.776-80.64 33.344a113.28 113.28 0 0 0-33.408 80.64c0 30.4 11.84 59.008 33.408 80.64l76.8 76.8a32 32 0 0 0 45.312-45.376l-76.8-76.8a49.728 49.728 0 0 1 0-70.592 49.728 49.728 0 0 1 70.592 0l93.504 93.504a49.92 49.92 0 0 1 6.016 63.36 32 32 0 1 0 52.8 36.224c30.912-45.184 25.216-106.176-13.504-144.896z m168.96 139.008l-76.8-76.8a32 32 0 0 0-45.248 45.312l76.8 76.8a49.728 49.728 0 0 1 0 70.592 49.92 49.92 0 0 1-70.592 0l-93.504-93.44a49.92 49.92 0 0 1-6.016-63.424 32 32 0 0 0-52.672-36.224 113.92 113.92 0 0 0 13.44 144.832l93.504 93.44a114.048 114.048 0 0 0 194.56-80.576c0-30.4-11.904-59.008-33.408-80.512z m192.256 464.32h-592c-52.928 0-96-43.072-96-96v-4.608h64v4.608c0 17.6 14.4 32 32 32h592c17.6 0 32-14.4 32-32v-592c0-17.6-14.4-32-32-32h-4.288v-64h4.288c52.864 0 96 43.072 96 96V733.44c0 52.928-43.136 96-96 96z"  horiz-adv-x="1024" />
      
      <glyph glyph-name="caidanshouqi" unicode="&#59064;" d="M843.264 440.32H459.776c-30.208 0-54.784-25.6-54.784-57.344 0-31.232 24.576-57.344 54.784-57.344h382.976c30.208 0 54.784 25.6 54.784 57.344 0 31.744-24.576 57.344-54.272 57.344zM186.368 651.776h656.896c30.208 0 54.784 25.6 54.784 57.344 0 31.232-24.576 57.344-54.784 57.344H186.368c-30.208 0-54.784-25.6-54.784-57.344 0-31.744 24.576-57.344 54.784-57.344z m656.896-537.088H186.368c-30.208 0-54.784-25.6-54.784-57.344 0-31.232 24.576-57.344 54.784-57.344h656.896c30.208 0 54.784 25.6 54.784 57.344-0.512 31.232-25.088 57.344-54.784 57.344zM294.4 567.296L141.312 407.552c-12.8-13.312-12.8-35.328 0-48.64l153.088-159.744c12.8-13.312 33.792-13.312 46.592 0 6.144 6.656 9.728 15.36 9.728 24.576V542.72c0 18.944-14.848 34.304-32.768 34.304-9.216 0.512-17.408-3.072-23.552-9.728z"  horiz-adv-x="1026" />
      
      <glyph glyph-name="openmenu" unicode="&#58890;" d="M769.508 531.64c-33.035 24.972-59.814 11.619-59.814-29.782v-235.717c0-41.421 26.789-54.747 59.814-29.782l135.49 102.424c33.035 24.972 33.024 65.467 0 90.433l-135.49 102.424zM64.812 784c0 27.614 22.379 50 50.001 50h792.911c27.614 0 50.001-22.38 50.001-50 0-27.614-22.379-50-50.001-50h-792.911c-27.614 0-50.001 22.38-50.001 50zM64.812-16c0 27.614 22.379 50 50.001 50h792.911c27.614 0 50.001-22.38 50.001-50 0-27.614-22.379-50-50.001-50h-792.911c-27.614 0-50.001 22.38-50.001 50zM64.812 534.015c0 27.614 22.401 50 50.008 50h396.048c27.62 0 50.008-22.38 50.008-50 0-27.614-22.401-50-50.008-50h-396.048c-27.62 0-50.008 22.38-50.008 50zM64.812 234.015c0 27.614 22.401 50 50.008 50h396.048c27.62 0 50.008-22.38 50.008-50 0-27.614-22.401-50-50.008-50h-396.048c-27.62 0-50.008 22.38-50.008 50z"  horiz-adv-x="1024" />
      
      <glyph glyph-name="dakaicaidan" unicode="&#58881;" d="M254.492 236.36000001000002c33.035-24.972 59.814-11.619 59.814 29.78199999l0 235.71699999c0 41.421-26.789 54.747-59.814 29.78200001l-135.49-102.424c-33.035-24.972-33.024-65.467 0-90.433L254.492 236.36000001000002zM959.188-16c0-27.61400001-22.37900001-50-50.001-49.99999999l-792.911-1e-8c-27.61400001 0-50.001 22.38-50.001 50 0 27.61400001 22.37900001 50 50.001 50L909.18699999 34c27.61400001 0 50.001-22.38 50.00100001-50z m0 800c0-27.61400001-22.37900001-50-50.00100001-50l-792.91099999 0c-27.61400001 0-50.001 22.38-50.001 50 0 27.61400001 22.37900001 50 50.001 50L909.187 833.99999999c27.61400001 0 50.001-22.38 50.001-49.99999999z m0-550.01499999c0-27.61400001-22.401-49.99999999-50.008-50.00000001l-396.04799999 0c-27.62000001 0-50.008 22.38-50.00800001 50 0 27.61400001 22.401 49.99999999 50.00800001 50L909.18 283.985c27.62000001 0 50.008-22.38 50.008-49.99999999z m0 299.99999999c0-27.61400001-22.401-49.99999999-50.008-50l-396.048 0c-27.62000001 0-50.008 22.38-50.008 50 0 27.61400001 22.401 49.99999999 50.008 50L909.18 583.985c27.62000001 0 50.008-22.38 50.008-50z"  horiz-adv-x="1024" />
      
      <glyph glyph-name="15ge-xiazai" unicode="&#59399;" d="M510.144 320a32 32 0 0 0 32-32v-202.752l56 63.872a32 32 0 1 0 48-42.24l-112-128-1.28-1.408a32.192 32.192 0 0 0-2.56-2.304l3.84 3.712a32 32 0 0 0-42.688-4.864l-1.728 1.344a29.568 29.568 0 0 0-4.352 4.352L374.144 106.88a32 32 0 0 0 48 42.24l56-63.872V288a32 32 0 0 0 32 32zM512 735.296A256 256 0 0 0 759.68 544H768a224 224 0 0 0 0-448h-32a32 32 0 1 0 0 64h32a160 160 0 1 1-27.84 317.44 32 32 0 0 0-38.08 27.52 192 192 0 0 1-380.16 0 32 32 0 0 0-38.08-27.52A160 160 0 1 1 256 160h32a32 32 0 0 0 0-64H256a224 224 0 1 0 0 448h8.32A256 256 0 0 0 512 735.296z"  horiz-adv-x="1024" />
      
      <glyph glyph-name="bofangda" unicode="&#59119;" d="M121.912889-128c-13.027556 0-19.512889 0-32.540445 6.371556-19.456 12.743111-32.483556 31.857778-32.483555 57.457777v893.155556C56.888889 854.528 69.916444 873.642667 89.372444 886.442667c19.512889 12.743111 45.511111 12.743111 65.024 0l780.231112-446.577778c19.456-12.8 32.483556-31.914667 32.483555-57.457778 0-25.543111-13.027556-44.657778-32.483555-57.457778l-780.231112-446.577777C141.425778-128 134.883556-128 121.912889-128z"  horiz-adv-x="1024" />
      
      <glyph glyph-name="zantingda" unicode="&#59122;" d="M307.2 896v-1024H0V896h307.2z m665.6 0v-1024h-307.2V896h307.2z"  horiz-adv-x="1024" />
      
      <glyph glyph-name="bofang2" unicode="&#59112;" d="M292.544 128c-7.296 0-10.944 0-18.24 3.584A37.568 37.568 0 0 0 256 163.904V666.24c0 14.4 7.296 25.152 18.304 32.32a33.728 33.728 0 0 0 36.544 0l438.848-251.2a37.568 37.568 0 0 0 0-64.64l-438.848-251.2C303.552 128 299.904 128 292.544 128z"  horiz-adv-x="1024" />
      
      <glyph glyph-name="jingyin1" unicode="&#59113;" d="M448 704v-592L272 288H128V528h144L448 704z m313.344-169.344l45.312-45.312-81.408-81.28 81.408-81.408-45.312-45.312-81.28 81.408-81.408-81.408-45.312 45.312 81.344 81.408-81.28 81.28 45.248 45.312 81.344-81.344 81.344 81.28z"  horiz-adv-x="1024" />
      
      <glyph glyph-name="tuichuquanping" unicode="&#59114;" d="M448 352v-192H384v128H256v64h192z m288 0v-64h-128v-128h-64v192h192zM448 640v-192H256V512h128V640h64z m160 0v-128h128v-64h-192V640h64z"  horiz-adv-x="1024" />
      
      <glyph glyph-name="yinliangda" unicode="&#59115;" d="M512 704v-592L336 288H192V528h144L512 704z m250.624-46.272C808.896 588.352 832 507.52 832 416c0-88.064-31.168-166.336-92.672-233.344l-12.672-13.312-45.312 45.312C739.456 272.64 768 339.328 768 416c0 72.576-16.448 136.192-49.28 191.36l-9.344 14.912 53.248 35.456z m-115.968-91.072c37.888-37.952 57.344-83.328 57.344-134.656 0-46.656-16.064-88.384-47.488-124.16l-9.856-10.496-45.312 45.312C627.456 368.64 640 397.952 640 432c0 30.272-9.92 56.704-30.4 80.576l-8.256 8.768 45.312 45.312z"  horiz-adv-x="1024" />
      
      <glyph glyph-name="yinliangxiao" unicode="&#59116;" d="M576 704v-592L400 288H256V528h144L576 704z m134.656-137.344c37.888-37.952 57.344-83.328 57.344-134.656 0-46.656-16.064-88.384-47.488-124.16l-9.856-10.496-45.312 45.312c26.112 26.048 38.656 55.296 38.656 89.344 0 30.272-9.92 56.704-30.4 80.576l-8.256 8.768 45.312 45.312z"  horiz-adv-x="1024" />
      
      <glyph glyph-name="quanping" unicode="&#59117;" d="M320 352v-128h128v-64H256v192h64z m416 0v-192h-192v64h128v128h64zM448 640v-64H320v-128H256V640h192z m288 0v-192h-64V576h-128V640h192z"  horiz-adv-x="1024" />
      
      <glyph glyph-name="zanting" unicode="&#59118;" d="M419.2 704v-544H256V704h163.2z m353.6 0v-544h-163.2V704h163.2z"  horiz-adv-x="1024" />
      
      <glyph glyph-name="xiaohaoguanbi" unicode="&#59376;" d="M552.448 392.192l253.696 253.76c12.8 12.8 12.8 33.92 0 46.72l-1.344 1.344a33.28 33.28 0 0 1-46.72 0L504.32 439.936l-253.76 254.08a33.28 33.28 0 0 1-46.72 0l-1.408-1.344a32.64 32.64 0 0 1 0-46.72l253.76-253.76-253.76-253.76c-12.8-12.8-12.8-33.92 0-46.72l1.408-1.344c12.8-12.8 33.92-12.8 46.72 0L504.32 344.064l253.696-253.696c12.8-12.8 33.92-12.8 46.72 0l1.408 1.344c12.8 12.8 12.8 33.92 0 46.72L552.448 392.192z"  horiz-adv-x="1024" />
      
      <glyph glyph-name="gongneng" unicode="&#59111;" d="M213.376 200.192a32 32 0 0 0-46.72 43.392l3.968 4.224 320 288a32 32 0 0 0 37.952 3.584l4.8-3.584 320-288a32 32 0 0 0-38.144-51.072l-4.608 3.456L512 468.928l-298.624-268.736z"  horiz-adv-x="1024" />
      
      <glyph glyph-name="gongnengxiala" unicode="&#59110;" d="M810.624 535.808a32 32 0 0 0 46.72-43.392l-3.968-4.224-320-288a32 32 0 0 0-37.952-3.584l-4.8 3.584-320 288a32 32 0 0 0 38.144 51.072l4.608-3.456L512 267.072l298.624 268.736z"  horiz-adv-x="1024" />
      
      <glyph glyph-name="anquanheguifan" unicode="&#59095;" d="M902.144 715.377778a65.820444 65.820444 0 0 1-42.837333 15.644444h-4.380445c-0.967111 0-11.207111-0.455111-26.737778-0.455111-26.282667 0-77.368889 1.877333-126.008888 12.458667-62.748444 14.222222-134.712889 79.189333-156.16 92.103111a68.266667 68.266667 0 0 1-70.030223 0c-2.446222-1.820444-78.336-76.003556-152.234666-92.558222-48.64-11.093333-100.693333-12.458667-126.976-12.458667-15.587556 0-25.770667 0.455111-26.737778 0.455111h-4.380445c-16.099556 0-31.630222-5.518222-43.292444-15.644444a55.352889 55.352889 0 0 1-19.968-41.927111v-144.156445c0-533.333333 380.871111-601.941333 396.913778-604.728889 3.925333-0.455111 7.338667-0.910222 11.207111-0.910222 3.925333 0 7.281778 0.455111 11.207111 0.910222 16.042667 2.787556 399.872 71.395556 399.872 604.728889V672.995556a54.215111 54.215111 0 0 1-19.456 42.382222zM761.514667 501.76l-264.135111-271.246222a33.450667 33.450667 0 0 0-6.257778-8.305778 37.546667 37.546667 0 0 0-28.273778-11.377778 39.594667 39.594667 0 0 0-34.531556 19.683556L287.288889 375.637333a40.049778 40.049778 0 0 0 0 55.751111 37.717333 37.717333 0 0 0 54.499555 0l121.173334-124.472888 244.167111 250.595555a37.717333 37.717333 0 0 0 54.442667 0 41.016889 41.016889 0 0 0 0-55.751111z"  horiz-adv-x="1024" />
      
      <glyph glyph-name="biaodan" unicode="&#59096;" d="M819.2 793.6a102.4 102.4 0 0 0 102.4-102.4v-614.4a102.4 102.4 0 0 0-102.4-102.4H204.8a102.4 102.4 0 0 0-102.4 102.4V691.2a102.4 102.4 0 0 0 102.4 102.4h614.4z m-384-563.2h-204.8a25.6 25.6 0 0 1-25.6-25.6v-51.2c0-14.165333 11.434667-25.6 25.6-25.6h204.8a25.6 25.6 0 0 1 25.6 25.6v51.2a25.6 25.6 0 0 1-25.6 25.6z m256 204.8h-460.8a25.6 25.6 0 0 1-25.6-25.6v-51.2c0-14.165333 11.434667-25.6 25.6-25.6h460.8a25.6 25.6 0 0 1 25.6 25.6v51.2a25.6 25.6 0 0 1-25.6 25.6z m102.4 204.8h-563.2a25.6 25.6 0 0 1-25.6-25.6v-51.2c0-14.165333 11.434667-25.6 25.6-25.6h563.2a25.6 25.6 0 0 1 25.6 25.6v51.2a25.6 25.6 0 0 1-25.6 25.6z"  horiz-adv-x="1024" />
      
      <glyph glyph-name="baobiao" unicode="&#59097;" d="M921.6 420.181333H548.295111V793.6a397.482667 397.482667 0 0 0 257.877333-115.484444A397.482667 397.482667 0 0 0 921.6 420.124444zM198.940444 110.648889A393.671111 393.671111 0 0 0 102.4 368.355556c0 105.244444 40.96 204.117333 115.484444 278.528a393.671111 393.671111 0 0 0 250.311112 114.005333v-381.724445l-269.255112-268.515555zM496.64-25.6a393.329778 393.329778 0 0 1 392.419556 365.795556l-380.017778 1.137777-270.336-270.392889a393.614222 393.614222 0 0 1 257.706666-96.540444h0.227556z"  horiz-adv-x="1024" />
      
      <glyph glyph-name="dingdingmoshi" unicode="&#59098;" d="M512 844.8a460.8 460.8 0 1 1 0-921.6A460.8 460.8 0 0 1 512 844.8z m213.560889-399.473778c-0.967111-3.982222-3.356444-9.955556-6.656-17.066666h0.113778l-0.398223-0.682667c-19.342222-41.415111-69.859556-122.595556-69.859555-122.595556l-0.227556 0.568889-14.791111-25.713778h71.111111l-135.793777-180.565333 30.833777 122.88h-55.978666l19.456 81.180445c-15.701333-3.754667-34.304-8.988444-56.32-16.099556 0 0-29.809778-17.408-85.845334 33.564444 0 0-37.774222 33.336889-15.815111 41.642667 9.272889 3.527111 45.169778 8.021333 73.386667 11.832889 38.286222 5.12 61.724444 7.907556 61.724444 7.907556s-117.76-1.706667-145.635555 2.616888c-27.875556 4.380444-63.374222 51.029333-70.940445 91.989334 0 0-11.662222 22.471111 25.144889 11.832889 36.750222-10.638222 188.984889-41.472 188.984889-41.472s-197.973333 60.700444-211.171555 75.548444c-13.141333 14.734222-38.741333 80.782222-35.441778 121.344 0 0 1.422222 10.126222 11.889778 7.395556 0 0 146.318222-66.844444 246.328888-103.480889 100.124444-36.636444 187.164444-55.182222 175.900445-102.627556z"  horiz-adv-x="1024" />
      
      <glyph glyph-name="liuchengshenpi" unicode="&#59099;" d="M102.4 793.6m102.4 0l614.4 0q102.4 0 102.4-102.4l0-614.4q0-102.4-102.4-102.4l-614.4 0q-102.4 0-102.4 102.4l0 614.4q0 102.4 102.4 102.4ZM713.500444 590.506667h-35.441777a17.578667 17.578667 0 0 1-16.952889-17.749334c0-9.671111 7.509333-17.521778 16.952889-17.749333h0.341333V554.666667h35.100444c25.713778 0.682667 49.720889-12.856889 62.748445-35.498667 13.084444-22.584889 13.084444-50.631111 0-73.272889-13.027556-22.584889-37.034667-36.181333-62.748445-35.441778v35.84l-52.792888-54.044444 52.792888-53.930667v35.84c58.368 0.056889 105.642667 48.412444 105.699556 108.088889-0.341333 60.188444-47.388444 108.259556-105.699556 108.259556z m-403.057777-376.775111c-38.968889 0-70.542222 32.256-70.542223 72.078222s31.573333 72.135111 70.542223 72.135111h35.100444a17.578667 17.578667 0 0 1 17.009778 17.749333 17.578667 17.578667 0 0 1-17.009778 17.749334v0.341333h-35.100444C252.188444 393.443556 204.8 344.974222 204.8 285.468444c0-59.619556 47.331556-107.975111 105.642667-107.975111v-35.896889l52.906666 54.044445-52.906666 53.987555v-35.896888zM567.352889 665.6H461.368889c-43.235556-0.455111-77.994667-36.408889-77.994667-80.611556s34.759111-80.156444 77.994667-80.611555h106.040889c43.235556 0.455111 78.051556 36.408889 78.051555 80.611555S610.588444 665.144889 567.352889 665.6z m0-198.542222H461.368889c-43.52 0-78.848-36.124444-78.848-80.668445 0-44.487111 35.271111-80.611556 78.848-80.611555h106.040889c43.576889 0 78.904889 36.124444 78.904889 80.611555 0 44.544-35.328 80.611556-78.904889 80.611556z m0-203.434667H461.368889c-43.52 0-78.848-36.067556-78.848-80.611555s35.271111-80.611556 78.848-80.611556h106.040889c43.576889 0 78.904889 36.067556 78.904889 80.611556s-35.328 80.611556-78.904889 80.611555z"  horiz-adv-x="1024" />
      
      <glyph glyph-name="gongnengmokuai" unicode="&#59100;" d="M393.841778 420.977778H184.32a81.635556 81.635556 0 0 0-81.692444 81.635555V712.305778c0 44.600889 36.522667 81.180444 81.578666 81.180444h209.635556c45.169778 0 81.692444-36.579556 81.692444-81.635555v-209.692445a82.261333 82.261333 0 0 0-81.635555-81.123555h-0.056889z m0-444.359111H184.32a81.635556 81.635556 0 0 0-81.692444 81.635555v209.578667c0 45.169778 36.522667 81.692444 81.578666 81.692444h209.635556c45.169778 0 81.692444-36.522667 81.692444-81.635555v-209.578667a82.261333 82.261333 0 0 0-81.635555-81.692444h-0.056889z m443.847111 0h-209.521778a81.635556 81.635556 0 0 0-81.692444 81.635555v209.578667c0 45.169778 36.522667 81.692444 81.635555 81.692444h209.578667c45.169778 0 81.692444-36.522667 81.692444-81.635555v-209.578667a81.635556 81.635556 0 0 0-81.635555-81.692444zM732.899556 420.977778A186.936889 186.936889 0 0 0 546.531556 607.573333a186.424889 186.424889 0 0 0 186.311111 185.856 186.936889 186.936889 0 0 0 186.481777-186.481777 186.424889 186.424889 0 0 0-186.481777-185.856h0.056889z"  horiz-adv-x="1024" />
      
      <glyph glyph-name="shujuzhushou" unicode="&#59101;" d="M819.2 793.6a102.4 102.4 0 0 0 102.4-102.4v-614.4a102.4 102.4 0 0 0-102.4-102.4H204.8a102.4 102.4 0 0 0-102.4 102.4V691.2a102.4 102.4 0 0 0 102.4 102.4h614.4z m-25.6-665.6h-563.2a25.6 25.6 0 0 1-25.6-25.6v-30.72c0-14.165333 11.434667-25.6 25.6-25.6h563.2a25.6 25.6 0 0 1 25.6 25.6v30.72a25.6 25.6 0 0 1-25.6 25.6z m-460.8 307.2h-51.2a25.6 25.6 0 0 1-25.6-25.6v-204.8c0-14.165333 11.434667-25.6 25.6-25.6h51.2a25.6 25.6 0 0 1 25.6 25.6v204.8a25.6 25.6 0 0 1-25.6 25.6z m204.8 256h-51.2a25.6 25.6 0 0 1-25.6-25.6v-460.8c0-14.165333 11.434667-25.6 25.6-25.6h51.2a25.6 25.6 0 0 1 25.6 25.6v460.8a25.6 25.6 0 0 1-25.6 25.6z m204.8-153.6h-51.2a25.6 25.6 0 0 1-25.6-25.6v-307.2c0-14.165333 11.434667-25.6 25.6-25.6h51.2a25.6 25.6 0 0 1 25.6 25.6v307.2a25.6 25.6 0 0 1-25.6 25.6z"  horiz-adv-x="1024" />
      
      <glyph glyph-name="shujushitu" unicode="&#59102;" d="M870.4 742.4a51.2 51.2 0 0 0 51.2-51.2v-460.8a51.2 51.2 0 0 0-51.2-51.2H563.2v-102.4h230.4a25.6 25.6 0 0 0 25.6-25.6v-51.2a25.6 25.6 0 0 0-25.6-25.6h-563.2a25.6 25.6 0 0 0-25.6 25.6v51.2a25.6 25.6 0 0 0 25.6 25.6H460.8v102.4H153.6a51.2 51.2 0 0 0-51.2 51.2V691.2a51.2 51.2 0 0 0 51.2 51.2h716.8z m-23.495111-127.032889a38.4 38.4 0 0 1-54.272 1.137778l-236.942222-226.986667-133.973334 166.456889-3.925333 4.209778a38.4 38.4 0 0 1-54.044444-1.991111l-186.936889-199.111111-3.584-4.437334a38.4 38.4 0 0 1 5.290666-49.834666l4.437334-3.584c15.36-10.695111 36.636444-8.760889 49.834666 5.290666l156.728889 166.912 132.664889-164.693333 3.754667-4.096c14.620444-13.653333 37.774222-13.824 52.679111 0.455111l267.150222 256 3.811556 4.209778a38.4 38.4 0 0 1-2.673778 50.062222z"  horiz-adv-x="1024" />
      
      <glyph glyph-name="quanxiantixi" unicode="&#59103;" d="M594.033778 508.017778a82.887111 82.887111 0 0 0-81.749334-83.228445A82.602667 82.602667 0 0 0 430.421333 508.017778c0 45.966222 36.693333 83.285333 81.92 83.285333 44.544 0.568889 81.692444-37.376 81.692445-83.285333z m-245.873778 0c0-76.231111 49.208889-137.329778 115.2-160.028445a11.662222 11.662222 0 0 0 7.68-10.979555v-192.341334c0-6.428444 5.12-11.662222 11.491556-11.662222h58.823111a11.605333 11.605333 0 0 1 11.434666 11.662222v18.545778c0 6.428444 5.12 11.662222 11.491556 11.662222h18.204444a11.605333 11.605333 0 0 1 11.434667 11.662223v59.960889a11.605333 11.605333 0 0 1-11.434667 11.662222h-18.204444a11.605333 11.605333 0 0 0-11.491556 11.662222V336.554667c0 5.233778 3.413333 9.784889 8.362667 11.207111 65.592889 19.512889 114.631111 84.252444 114.631111 160.312889 0 91.989333-73.784889 167.082667-164.067555 167.082666-89.827556 0-163.555556-75.093333-163.555556-167.082666zM520.305778 843.434667l383.374222-132.835556a26.965333 26.965333 0 0 0 17.92-25.6v-330.24c0-150.186667-86.300444-284.103111-221.297778-342.300444L514.844444-74.353778a26.055111 26.055111 0 0 0-22.300444 0.113778l-172.999111 82.090667C184.092444 70.144 102.4 199.452444 102.4 345.6V684.942222c0 11.548444 7.224889 21.845333 17.92 25.6L503.182222 843.377778a26.510222 26.510222 0 0 0 17.123556 0z"  horiz-adv-x="1024" />
      
      <glyph glyph-name="xiaoxitixing" unicode="&#59104;" d="M629.020444 38.4H394.979556c0-63.601778 52.394667-115.2 117.020444-115.2s117.020444 51.598222 117.020444 115.2z m270.222223 141.937778a100.465778 100.465778 0 0 0-49.607111 85.902222V467.968c0 147.911111-113.265778 271.246222-264.533334 301.511111v7.281778C585.102222 814.364444 552.846222 844.8 513.137778 844.8c-39.822222 0-72.248889-30.549333-72.248889-68.152889v-7.054222c-151.381333-30.378667-264.533333-153.6-264.533333-301.624889v-201.841778c0-36.124444-19.911111-67.754667-49.720889-85.902222a43.804444 43.804444 0 0 0 25.543111 6.485333c-26.453333 0.910222-48.753778-18.659556-49.720889-43.690666-0.967111-25.031111 19.683556-46.08 46.193778-47.047111h724.764444c26.510222-0.113778 48.071111 20.252444 48.184889 45.283555 0.113778 25.201778-21.276444 45.511111-47.900444 45.511111a44.657778 44.657778 0 0 0 25.486222-6.428444z"  horiz-adv-x="1024" />
      
      <glyph glyph-name="qiyeweixinmoshi" unicode="&#59105;" d="M512 844.8C257.820444 844.8 51.2 638.179556 51.2 384c0-254.236444 206.620444-460.8 460.8-460.8 254.236444 0 460.8 206.620444 460.8 460.8S766.179556 844.8 512 844.8zM427.52 262.656c-22.300444 0-44.544 3.811556-64.512 9.216a9.443556 9.443556 0 0 0-3.811556 1.536l-49.948444-29.184c-13.084444-7.68-22.300444-1.536-18.432 13.084444 0 0 13.084444 53.703111 10.752 53.703112-47.616 31.516444-69.916444 72.248889-69.916444 127.544888 3.868444 92.899556 85.276444 166.627556 195.868444 166.627556 101.376 0 184.32-62.976 198.940444-145.92h-9.216c-101.376 0-184.32-69.859556-184.32-156.672 0-14.620444 1.536-27.648 5.347556-40.732444h-10.752v0.796444z m296.448-72.192l14.563556-29.184c7.736889-13.084444 1.536-18.432-10.695112-10.752 0 0-36.920889 22.243556-38.456888 19.968a321.365333 321.365333 0 0 0-72.135112-10.752c-93.696 0-171.292444 64.512-171.292444 143.587556 0 79.132444 77.596444 143.644444 171.235556 143.644444 93.696 0 171.292444-64.512 171.292444-143.644444 0-46.819556-23.779556-85.219556-64.512-112.867556zM344.860444 532.992a22.755556 22.755556 0 0 1-25.088 0 29.923556 29.923556 0 0 1-12.572444-24.462222c0-10.012444 4.437333-19.342222 12.515556-24.348445a22.755556 22.755556 0 0 1 25.144888 0 29.923556 29.923556 0 0 1 0 48.810667z m136.760889-52.167111c13.994667 0 25.088 12.629333 25.088 28.615111a28.103111 28.103111 0 0 1-12.515555 24.348444 22.755556 22.755556 0 0 1-25.144889 0 28.103111 28.103111 0 0 1-12.572445-24.348444c0-15.985778 11.093333-28.615111 25.144889-28.615111z m162.531556-99.271111c-11.832889 0-21.390222-10.922667-21.390222-24.348445 0-13.482667 9.557333-24.405333 21.390222-24.405333s21.447111 10.922667 21.447111 24.405333c0 13.425778-9.614222 24.348444-21.447111 24.348445z m-116.736 0c-11.832889 0-21.447111-10.922667-21.447111-24.348445 0-13.482667 9.671111-24.405333 21.447111-24.405333 11.832889 0 21.447111 10.922667 21.447111 24.405333 0 13.425778-9.671111 24.348444-21.447111 24.348445z"  horiz-adv-x="1024" />
      
      <glyph glyph-name="zuzhijiagou" unicode="&#59106;" d="M512 844.8A460.401778 460.401778 0 0 1 51.2 384c0-254.805333 205.994667-460.8 460.8-460.8A460.8 460.8 0 0 1 972.8 384 460.8 460.8 0 0 1 512 844.8z m-0.568889-197.233778c36.181333 0 65.763556-29.582222 65.763556-65.763555A65.991111 65.991111 0 0 0 511.431111 515.982222a65.991111 65.991111 0 0 0-65.706667 65.763556c0 36.181333 29.582222 65.763556 65.706667 65.763555zM314.197333 384v32.881778h180.792889v49.322666h32.881778v-49.322666h180.849778v-82.204445h-32.881778V384H347.022222v-49.322667h-32.881778V384z m17.009778-213.674667A65.991111 65.991111 0 0 0 265.443556 236.088889c0 36.124444 29.582222 65.706667 65.763555 65.706667 36.124444 0 65.706667-29.582222 65.706667-65.706667a65.991111 65.991111 0 0 0-65.706667-65.763556z m180.224 0A65.991111 65.991111 0 0 0 445.724444 236.088889c0 36.124444 29.582222 65.706667 65.706667 65.706667 36.181333 0 65.763556-29.582222 65.763556-65.706667 0.568889-36.181333-29.013333-65.763556-65.763556-65.763556z m181.361778 0a65.991111 65.991111 0 0 0-65.706667 65.763556c0 36.124444 29.582222 65.706667 65.706667 65.706667 36.181333 0 65.763556-29.582222 65.763555-65.706667a65.991111 65.991111 0 0 0-65.763555-65.763556z"  horiz-adv-x="1024" />
      
      <glyph glyph-name="weixingongzhonghaomoshi" unicode="&#59107;" d="M512 844.8a460.8 460.8 0 1 0 0-921.6A460.8 460.8 0 0 0 512 844.8z m144.384-614.684444a9.045333 9.045333 0 0 1 1.137778-13.880889c20.024889-18.432 32.881778-43.235556 36.522666-70.200889a38.627556 38.627556 0 0 1 70.542223-8.931556 38.001778 38.001778 0 0 1-29.354667 56.775111 118.727111 118.727111 0 0 0-65.763556 36.238223 9.329778 9.329778 0 0 1-13.084444 0zM452.437333 666.567111c-69.12-7.509333-131.754667-36.693333-176.810666-82.261333a230.684444 230.684444 0 0 1-43.178667-59.847111c-34.076444-67.697778-28.330667-148.536889 14.904889-210.716445 12.231111-18.204444 32.312889-41.016889 50.631111-57.230222l-8.248889-64.455111-0.967111-2.673778c-0.227556-0.853333-0.227556-1.706667-0.341333-2.56l-0.170667-2.048 0.170667-2.048a20.935111 20.935111 0 0 1 31.630222-16.042667h0.341333l1.308445 0.910223 19.854222 9.841777 59.164444 29.354667c28.16-7.964444 57.287111-11.946667 86.584889-11.719111a314.197333 314.197333 0 0 1 106.154667 18.204444 37.944889 37.944889 0 0 0-26.168889 39.765334 264.533333 264.533333 0 0 0-109.226667-10.752l-5.859555 0.796444a268.117333 268.117333 0 0 0-39.253334 8.078222 27.079111 27.079111 0 0 1-20.992-2.161777l-1.592888-0.796445-48.753778-28.216889-2.048-1.251555c-1.137778-0.682667-1.706667-0.910222-2.275556-0.910222a3.299556 3.299556 0 0 0-3.185778 3.413333l1.877334 7.395555 2.161778 8.078223 3.470222 13.312 4.039111 14.791111a20.024889 20.024889 0 0 1-7.395556 22.471111 211.342222 211.342222 0 0 0-49.152 50.574222 162.531556 162.531556 0 0 0-11.946666 166.115556c8.931556 17.635556 20.650667 33.735111 34.588444 47.786666 36.977778 37.546667 88.860444 61.496889 146.318222 67.697778 19.911111 2.104889 39.936 2.104889 59.790223 0 57.116444-6.542222 108.828444-30.776889 145.578666-68.152889a187.733333 187.733333 0 0 0 34.247111-48.071111c11.320889-22.414222 17.180444-47.217778 17.237334-72.305778 0-2.616889-0.227556-5.233778-0.398223-7.736889a38.798222 38.798222 0 0 0 47.331556-5.518222l1.706667-2.048a205.255111 205.255111 0 0 1-20.992 107.975111 232.448 232.448 0 0 1-42.666667 59.904 291.271111 291.271111 0 0 1-176.128 82.830223 329.386667 329.386667 0 0 1-71.338667 0.227555z m377.856-366.307555a38.627556 38.627556 0 0 1-17.294222-9.898667h-0.113778a37.660444 37.660444 0 0 1-11.093333-22.869333c-4.721778-25.088-17.578667-47.957333-36.579556-65.024a9.045333 9.045333 0 0 1-0.227555-12.913778 9.329778 9.329778 0 0 1 14.336 1.308444 118.784 118.784 0 0 0 71.111111 35.953778 38.001778 38.001778 0 0 1 27.136 46.648889 38.570667 38.570667 0 0 1-47.217778 26.794667z m-144.952889 37.944888l-0.682666-0.682666c-18.887111-20.48-44.430222-33.678222-72.135111-37.262222a37.774222 37.774222 0 0 1-17.066667-63.544889c15.075556-14.791111 39.480889-14.791111 54.499556 0.113777a37.888 37.888 0 0 1 11.036444 22.755556c4.778667 25.144889 17.635556 48.014222 36.693333 65.080889a9.045333 9.045333 0 0 1 0.682667 12.856889 9.329778 9.329778 0 0 1-13.027556 0.682666z m35.84 69.176889a37.660444 37.660444 0 0 1-16.782222-63.544889 38.741333 38.741333 0 0 1 23.096889-10.808888c25.258667-4.608 48.355556-17.294222 65.877333-36.124445a9.329778 9.329778 0 0 1 13.084445-0.170667 8.988444 8.988444 0 0 1-1.308445 14.051556 116.280889 116.280889 0 0 0-36.465777 70.144 38.570667 38.570667 0 0 1-47.502223 26.453333z"  horiz-adv-x="1024" />
      
      <glyph glyph-name="Pythonjiaoben" unicode="&#59108;" d="M420.977778 793.6a115.882667 115.882667 0 0 1-115.882667-115.939556v-68.096h173.852445c15.815111 0 28.785778-23.096889 28.785777-38.912H218.339556A115.882667 115.882667 0 0 1 102.4 454.712889v-153.201778c0-64.056889 51.882667-115.939556 115.939556-115.939555h47.786666v108.657777c0 64 51.484444 115.882667 115.541334 115.882667h212.764444a115.598222 115.598222 0 0 1 115.996444 115.541333V677.660444A115.882667 115.882667 0 0 1 594.488889 793.6H420.977778z m-29.184-65.251556c16.213333 0 29.184-4.892444 29.184-28.785777 0-23.893333-12.970667-36.124444-29.184-36.124445-15.815111 0-28.785778 12.174222-28.785778 36.067556 0 23.893333 12.970667 28.842667 28.785778 28.842666zM749.226667 590.904889v-108.600889a115.484444 115.484444 0 0 0-115.484445-115.882667H420.977778a115.484444 115.484444 0 0 1-115.882667-115.484444v-152.064c0-64 51.882667-115.882667 115.882667-115.882667h173.511111a115.939556 115.939556 0 0 1 115.939555 115.882667v68.096H536.462222c-15.815111 0-28.728889 23.096889-28.728889 38.912h289.393778a115.939556 115.939556 0 0 1 115.939556 115.939555V475.022222a115.939556 115.939556 0 0 1-115.939556 115.882667h-47.843555z m-390.257778-184.888889l-0.568889-0.967111c1.820444 0.512 3.754667 0.284444 5.688889 0.967111h-5.12z m264.704-292.977778c15.815111 0 28.785778-12.117333 28.785778-36.010666a28.785778 28.785778 0 0 0-28.785778-28.785778c-16.213333 0-29.184 4.835556-29.184 28.785778 0 23.893333 12.970667 36.067556 29.184 36.067555z"  horiz-adv-x="1024" />
      
      <glyph glyph-name="webapi" unicode="&#59109;" d="M819.2 64a38.4 38.4 0 0 0 5.233778-76.458667l-5.233778-0.341333H204.8a38.4 38.4 0 0 0-5.233778 76.458667l5.233778 0.341333h614.4zM870.4 742.4a51.2 51.2 0 0 0 51.2-51.2v-512a51.2 51.2 0 0 0-51.2-51.2H153.6a51.2 51.2 0 0 0-51.2 51.2v512a51.2 51.2 0 0 0 51.2 51.2h716.8zM364.088889 563.2H299.690667L204.8 307.2h69.745778l16.782222 50.631111h81.521778l16.384-50.631111h70.087111L364.088889 563.2z m222.72 0H502.499556v-256h67.413333V398.165333h14.506667c39.594667 0 53.304889 1.137778 69.347555 6.542223 34.304 11.093333 52.565333 37.546667 52.565333 75.207111 0 32.995556-14.449778 58.709333-40.789333 71.793777-16.839111 8.533333-34.702222 11.093333-78.734222 11.434667z m232.391111 0h-67.470222v-256H819.2v256zM332.060444 495.672889l24.007112-86.755556h-48.355556l24.348444 86.755556z m286.663112 13.425778c12.515556-4.209778 19.000889-13.824 19.000888-28.785778 0-12.686222-4.949333-21.504-14.051555-26.510222-7.111111-3.072-14.222222-4.323556-31.800889-4.551111h-21.959111V511.715556h16.782222c19.057778 0 25.543111-0.398222 32.028445-2.673778z"  horiz-adv-x="1024" />
      
      <glyph glyph-name="gengduo" unicode="&#59094;" d="M883.648 373.696l-403.392-403.456a44.544 44.544 0 1 1 62.976-62.912l464.576 464.576L543.168 836.48a44.544 44.544 0 1 1-62.912-62.976l403.392-399.808z m-445.888-0.768L35.072-29.76a44.544 44.544 0 1 1 62.912-62.912l464.64 464.576L97.92 836.48a44.544 44.544 0 1 1-62.912-62.976L437.76 372.928z"  horiz-adv-x="1024" />
      
      <glyph glyph-name="zixunfuwu" unicode="&#59093;" d="M505.934769 896C226.934154 896 0.669538 691.318154 0.669538 438.744615c0-144.384 74.043077-272.817231 189.44-356.667077v-144.147692s2.244923-76.721231 67.268924-44.819692c68.844308 33.752615 153.993846 96.649846 153.993846 96.649846 30.72-5.238154 62.109538-8.270769 94.483692-8.270769 279.000615 0 505.265231 204.681846 505.265231 457.255384C1011.239385 691.318154 784.935385 896 505.934769 896zM253.321846 373.405538c-34.934154 0-63.094154 29.223385-63.094154 65.339077 0 36.076308 28.278154 65.299692 63.094154 65.299693 34.934154 0 63.094154-29.223385 63.094154-65.299693 0.118154-36.115692-28.16-65.339077-63.094154-65.339077z m252.612923 0c-34.934154 0-63.094154 29.223385-63.094154 65.339077 0 36.076308 28.278154 65.299692 63.094154 65.299693 34.934154 0 63.133538-29.223385 63.133539-65.299693 0-36.115692-28.199385-65.339077-63.133539-65.339077z m252.652308 0c-34.934154 0-63.094154 29.223385-63.094154 65.339077 0 36.076308 28.278154 65.299692 63.094154 65.299693 34.934154 0 63.094154-29.223385 63.094154-65.299693 0-36.115692-28.278154-65.339077-63.094154-65.339077z"  horiz-adv-x="1024" />
      
      <glyph glyph-name="fangda" unicode="&#58960;" d="M320-128h-256C28.625455-128 0-99.328 0-64v256a64 64 0 0 0 128 0v-101.096727l210.571636 210.525091a64.232727 64.232727 0 1 0 90.856728-90.856728L218.298182 0h101.748363a64 64 0 0 0 0-128zM640 448a64 64 0 0 0-45.428364 109.428364L805.701818 768h-101.748363a64 64 0 0 0 0 128h256C995.374545 896 1024 867.328 1024 832v-256a64 64 0 0 0-128 0V677.748364l-210.571636-211.176728c-12.101818-12.008727-28.392727-18.664727-45.428364-18.571636z"  horiz-adv-x="1024" />
      
      <glyph glyph-name="bofang" unicode="&#58959;" d="M905.831057 324.28223l-720.193728-442.412845C142.232288-146.005412 85.344948-111.304134 85.344948-58.171359V827.393868C87.506667 879.161347 145.19043 913.066202 189.335006 887.0118l716.95115-442.412845c43.234379-27.761022 43.234379-92.157491-0.455099-120.259838z"  horiz-adv-x="1024" />
      
      <glyph glyph-name="suoxiao1" unicode="&#58880;" d="M636.45327262 569.9965423h237.34386527c28.18713719 0 51.06365433-22.87651712 51.06365432-51.0636543v-1.39573989c0-28.22117964-22.87651712-51.06365433-51.06365432-51.06365433h-237.34386527c-28.22117964 0-51.06365433 22.84247468-51.0636543 51.06365433v1.36169744c0 28.25522207 22.84247468 51.06365433 51.0636543 51.06365432zM636.07880586 812.61698516c28.18713719 0 51.06365433-22.84247468 51.06365429-51.06365431v-243.67575841a50.89344214 50.89344214 0 1 0-101.78688425 0V761.5533308500001a50.82535727 50.82535727 0 0 0 50.72322996 51.06365431zM994.23927719 881.99547015a63.38701623 63.38701623 0 0 1-86.63800014-14.7744173l-234.89280984-239.82896308a65.56573213 65.56573213 0 0 1-14.43399295-88.03374005c19.744613-20.42546172 58.45086298-13.75314423 86.26353336 14.7744173l235.23323421 239.82896311a65.97424139 65.97424139 0 0 1 14.46803536 88.03374002zM152.19961756 312.56763967999996h245.1055407c28.22117964 0 51.06365433-22.87651712 51.06365433-51.0636543v-1.42978235c0-28.25522207-22.80843225-51.19982404-51.06365433-51.40407867h-245.1055407a51.40407869 51.40407869 0 0 0-51.06365435 51.40407867v1.42978235c0 28.18713719 22.87651712 51.06365433 51.06365435 51.0636543zM396.24984277 312.56763967999996a52.01684252 52.01684252 0 0 0 52.11896982-52.11896982v-241.59916977a52.11896984 52.11896984 0 0 0-104.23793967 0v241.59916977a52.22109714 52.22109714 0 0 0 52.11896985 52.08492737zM377.59458772 238.96789260000003a65.32743508 65.32743508 0 0 1-88.37416444-14.43399296L48.67656905-15.295063469999945a54.97853448 54.97853448 0 1 1 73.59974707-73.59974709l240.54385427 239.8289631a64.68062881 64.68062881 0 0 1 14.77441733 88.03374006z"  horiz-adv-x="1024" />
      
      <glyph glyph-name="bofang1" unicode="&#59065;" d="M139.636364 802.909091m46.545454 0l139.636364 0q46.545455 0 46.545454-46.545455l0-744.727272q0-46.545455-46.545454-46.545455l-139.636364 0q-46.545455 0-46.545454 46.545455l0 744.727272q0 46.545455 46.545454 46.545455ZM651.636364 802.909091m46.545454 0l139.636364 0q46.545455 0 46.545454-46.545455l0-744.727272q0-46.545455-46.545454-46.545455l-139.636364 0q-46.545455 0-46.545454 46.545455l0 744.727272q0 46.545455 46.545454 46.545455Z"  horiz-adv-x="1024" />
      
      <glyph glyph-name="jingyin" unicode="&#59171;" d="M446.165333 710.144a32.682667 32.682667 0 0 1-21.162666-7.808L216.618667 555.221333H118.144A32.426667 32.426667 0 0 1 85.333333 523.093333v-320.938666a32.426667 32.426667 0 0 1 32.853334-32.085334h98.432L424.96 23.04c6.4-5.376 13.866667-7.808 21.162667-7.808 16.981333 0 33.024 13.013333 33.024 32.170667V677.973333c0 19.2-16.085333 32.170667-33.024 32.170667z m-32.64-95.061333v-504.832l-158.464 111.914666-17.237333 12.16H150.954667V491.008h86.869333l17.237333 12.16 158.464 111.914667z m195.541334-80.213334l105.6-105.6 105.6 105.6a32 32 0 0 0 45.226666-45.269333L759.978667 384l105.6-105.6a32 32 0 0 0-45.269334-45.226667l-105.6 105.557334-105.6-105.6a32 32 0 0 0-45.226666 45.269333L669.354667 384l-105.6 105.6a32 32 0 0 0 45.269333 45.226667z"  horiz-adv-x="1024" />
      
      <glyph glyph-name="volumeyinliang" unicode="&#59120;" d="M277.333333 512a42.666667 42.666667 0 0 0 42.666667 42.666667h184.106667l170.794666 159.189333 0.554667 0.512c0.938667 0.853333 1.962667 1.706667 2.986667 2.474667l-3.541334-2.986667a43.008 43.008 0 0 0 19.328 10.368l3.712 0.682667a42.752 42.752 0 0 0 5.674667 0.426666h0.384l2.090667-0.042666 2.261333-0.170667L704 725.333333a42.922667 42.922667 0 0 0 31.189333-13.568l0.512-0.554666c0.853333-0.938667 1.706667-1.962667 2.474667-2.986667l-2.986667 3.541333A43.008 43.008 0 0 0 746.666667 682.666667v-597.333334a42.752 42.752 0 0 0-14.421334-32l2.986667 2.901334a43.050667 43.050667 0 0 0-26.922667-13.354667A54.186667 54.186667 0 0 0 704 42.666667h-1.834667 1.834667c-1.962667 0-3.925333 0.128-5.845333 0.426666h-0.213334l-3.712 0.682667a42.325333 42.325333 0 0 0-19.328 10.368L504.149333 213.333333H320a42.666667 42.666667 0 0 0-42.368 37.674667L277.333333 256V512z m384 72.576l-111.274666-103.765333a42.666667 42.666667 0 0 0-29.098667-11.477334L362.666667 469.376V298.666667h158.293333a42.666667 42.666667 0 0 0 29.098667-11.434667L661.333333 183.466667V584.576z"  horiz-adv-x="1024" />
      
      <glyph glyph-name="volumeyinliangda" unicode="&#59121;" d="M839.850667 719.402667l4.010666-3.541334A467.882667 467.882667 0 0 0 981.333333 384c0-124.586667-48.554667-237.909333-127.829333-321.92l-9.642667-9.941333a42.666667 42.666667 0 0 0-60.330666 60.330666A382.805333 382.805333 0 0 1 896 384a382.805333 382.805333 0 0 1-112.469333 271.530667 42.666667 42.666667 0 0 0 56.32 63.872zM469.333333 725.333333l4.224-0.213333 3.584-0.512a59.989333 59.989333 0 0 0 6.229334-1.664 41.344 41.344 0 0 0 12.928-7.210667l1.28-1.066666c0.981333-0.853333 1.877333-1.749333 2.773333-2.688l0.682667-0.768 1.237333-1.450667-1.322667 1.493333 2.304-2.730666 0.256-0.298667 0.938667-1.28c0.64-0.981333 1.28-1.92 1.834667-2.901333l0.853333-1.536a43.392 43.392 0 0 0 2.944-7.082667l0.64-2.389333A42.666667 42.666667 0 0 0 512 682.666667v-597.333334c0-3.584-0.426667-7.04-1.28-10.368l-0.64-2.389333a41.130667 41.130667 0 0 0-9.045333-15.786667 46.336 46.336 0 0 0-0.512-0.554666l-1.493334-1.536-0.597333-0.512h-0.042667l-2.133333-1.962667a46.08 46.08 0 0 0-9.386667-5.802667 42.496 42.496 0 0 0-13.226666-3.541333l-1.28-0.085333A42.325333 42.325333 0 0 0 469.333333 42.666667h-0.853333l-0.170667 0.042666L469.333333 42.666667h-1.834666l0.810666 0.042666-1.92 0.042667a42.837333 42.837333 0 0 0-2.901333 0.298667l-0.213333 0.042666-3.712 0.682667-0.298667 0.085333-2.688 0.725334a41.130667 41.130667 0 0 0-7.125333 2.986666l-0.725334 0.426667-0.768 0.426667a43.946667 43.946667 0 0 0-7.168 5.205333l-0.554666 0.512L269.482667 213.333333H85.333333a42.666667 42.666667 0 0 0-42.368 37.674667L42.666667 256V512a42.666667 42.666667 0 0 0 42.666666 42.666667h184.106667l170.794667 159.189333 0.554666 0.512 1.450667 1.28-1.109333-0.981333 2.176 1.834666 1.792 1.28c0.938667 0.64 1.877333 1.28 2.858666 1.834667l1.536 0.853333a43.392 43.392 0 0 0 7.082667 2.944l2.389333 0.64a22.826667 22.826667 0 0 0 0.597334 0.170667l3.712 0.682667a42.752 42.752 0 0 0 3.413333 0.341333L467.84 725.333333 469.333333 725.333333z m-42.666666-140.757333L315.392 480.810667A42.666667 42.666667 0 0 0 286.293333 469.333333L128 469.376V298.666667h158.293333a42.666667 42.666667 0 0 0 29.098667-11.434667L426.666667 183.466667V584.576z m262.314666-16l4.053334-3.541333A255.189333 255.189333 0 0 0 768 384c0-66.56-25.386667-127.146667-66.986667-172.672l-7.978666-8.362667a42.666667 42.666667 0 0 0-60.373334 60.373334A170.112 170.112 0 0 1 682.666667 384a170.112 170.112 0 0 1-50.005334 120.661333 42.666667 42.666667 0 0 0 56.32 63.914667z"  horiz-adv-x="1024" />
      
    </font>
</defs>
</svg>
